<?xml version="1.0" encoding="UTF-8"?>
<!DOCTYPE svg PUBLIC "-//W3C//DTD SVG 1.1//EN" "http://www.w3.org/Graphics/SVG/1.1/DTD/svg11.dtd">
<svg version="1.1" xmlns="http://www.w3.org/2000/svg" xmlns:xlink="http://www.w3.org/1999/xlink" x="0" y="0" width="512" height="512" viewBox="0, 0, 512, 512">
  <g id="Layer_1">
    <path d="M256,512 C114.615,512 0,397.385 -0,256 C-0,114.615 114.615,0 256,-0 C397.385,-0 512,114.615 512,256 C512,397.385 397.385,512 256,512 z" fill="#757A8A" fill-opacity="0.14"/>
    <path d="M256,496.086 C123.404,496.086 15.914,388.596 15.914,256 C15.914,123.404 123.404,15.914 256,15.914 C388.596,15.914 496.086,123.404 496.086,256 C496.086,388.596 388.596,496.086 256,496.086 z" fill="#757A8A" fill-opacity="0.14"/>
    <path d="M256,231 C309.301,231 352.5,187.801 352.5,134.5 C352.5,81.199 309.301,38 256,38 C202.699,38 159.5,81.199 159.5,134.5 C159.5,187.801 202.699,231 256,231 z M328.224,255.577 L292.188,399.875 L268.062,297.344 L292.188,255.125 L219.812,255.125 L243.938,297.344 L219.812,399.875 L183.776,255.577 C130.022,258.141 87.125,302.093 87.125,356.45 L87.125,387.812 C87.125,407.791 103.334,424 123.312,424 L388.688,424 C408.666,424 424.875,407.791 424.875,387.812 L424.875,356.45 C424.875,302.093 381.978,258.141 328.224,255.577 z" fill="#757A8A"/>
  </g>
</svg>
