<svg width="210" height="50" viewBox="0 0 210 50" xmlns="http://www.w3.org/2000/svg" xmlns:xlink="http://www.w3.org/1999/xlink"><defs><path id="a" d="M0 0h24.29v8.82H0z"/><path id="c" d="M0 0h8.22v4.33H0z"/></defs><g fill="none" fill-rule="evenodd"><path d="m33.83 41.36-1.27-.01c-.16 0-.45-.06-.6 0-.17 0-.4-.04-.54.03-.11 0-.3-.03-.4.01l-.72-.05c-.05 0-.1-.02-.15 0h-.9v-.03h.02c0-.02 0-.01.02-.02.14-.05.33-.04.5-.04l.79-.05c.37-.03.75-.1 1.12-.13l.57-.06c.18-.02.36-.09.55-.1l.55-.04c.14-.01.3-.04.45-.04h.36c.07 0 .15 0 .22-.02l.26-.01h.24v.03l-.02.01c-.11.1-.26.18-.39.26-.09.05-.16.12-.25.16l-.24.08c-.05 0-.12 0-.17.02Zm-.26.27c-.06 0-.22.12-.28.15-.19.1-.39.2-.58.27-.12.06-.24.13-.37.15-.23.05-.5 0-.77 0-.1 0-.19.03-.3.04-.09 0-.25-.03-.34.02h-.36c-.15 0-.3-.1-.44 0-.26-.01-.53-.01-.78-.03-.11 0-.3-.03-.4.01-.07 0-.18-.01-.23.02h-.45c-.15 0-.55-.07-.67 0-.4 0-.76-.08-1.17-.08v-.04c.05 0 .22-.14.27-.17.17-.1.36-.17.56-.24.11-.04.22-.09.36-.1h.9l.75-.02c.63 0 1.29.03 1.91 0h.62c.1 0 .22 0 .31-.04.48 0 .95.03 1.45.03v.02h.01v.01Zm-1.84.87h-.02c0 .03-.03.02-.05.03l-.5.2-.26.12-.36.13c-.13 0-.4-.04-.5 0h-.33c-.08 0-.17-.02-.24 0-.08 0-.18 0-.24.02l-.1.02h-.49c-.1-.01-.23-.07-.32-.02-.09 0-.2-.02-.26.01-.11 0-.27-.02-.36.02-.06 0-.13 0-.18.02-.09 0-.21-.02-.29.01l-.12.02c-.13 0-.53-.05-.62 0l-.27-.01c-.17 0-.32-.03-.48-.05 0-.16.24-.48.4-.52.13-.04.3 0 .44-.02.48-.06 1 .01 1.48.01.25 0 .5-.03.76-.02h.48c.09 0 .18 0 .26-.02.15.05.42.02.6.02.24 0 .49.04.74.04l.34-.03h.49v.02Zm-2.21.78c-.2 0-.42.12-.6.16-.14.03-.29 0-.4.07-.2 0-.38.1-.56.14l-.13.03c-.11 0-.22 0-.31.05-.08 0-.31.04-.38.07-.1 0-.22-.01-.3.03-.13 0-.38-.03-.47.02l-.1.01h-.82v-.02c-.02 0-.01 0-.01-.02 0-.16.07-.45.24-.47.36-.05.74-.03 1.1-.02.31 0 .65-.01.95-.04.12-.01.25 0 .36-.04.25 0 .49.02.72.03l.71-.02v.02Zm-4.89-.2h-.01v-.02c-.03 0-.04-.03-.06-.05l-.2-.32-.42-.49c-.41-.4-.9-.73-1.42-.95l-.31-.12-.35-.17c-.12-.04-.24-.05-.36-.07l-.38-.1c-.26-.04-.53-.12-.8-.17l-.77-.1c-.2 0-.4 0-.6-.02-.93-.1-1.85-.19-2.75-.33-.31-.06-.6-.06-.91-.11-.3-.05-.6-.14-.88-.23l-.47-.14-.45-.2-.31-.14-.22-.14-.1-.06c-.25-.2-.44-.47-.63-.71-.15-.19-.22-.4-.3-.62l-.1-.34c-.1-.51-.1-1.05-.1-1.61l-.03-.33.05-1.26v-1.53l.02-.8c-.01-1.13 0-2.28.03-3.41l-.02-.49.02-.51-.01-.24.06-.78-.01-.58.02-.43c0-.12-.04-.23-.03-.36l.01-.33v-.69l.01-.41c0-.15-.03-.3-.03-.47l.05-.56v-.54l.01-1.2.01-.24-.02-.52.04-.45c.01-.71.01-1.45.03-2.15v-.72c0-.17-.03-.34-.03-.52l.02-.34v-1.82l.01-.64v-.76l.01-.5c0-.13-.03-.33.02-.44 0-.04.04-.03.07-.04.25-.03.56-.06.82-.02.33.05.66 0 1 0h.91c.19 0 .37-.02.56-.03l1 .02h1.6c.17 0 .35 0 .52-.02.14 0 .27.04.43.04l.55-.02.88.03.4.03 1.23-.02c.27 0 .54 0 .8.02.24 0 .46-.05.7-.05l.51.02h.47c.18 0 .35.02.53.04l.41-.03.81.04.38-.04h2.17l.48-.03c.33-.01.68.01 1-.01l.2-.02c.28.03.6 0 .9 0 .12 0 .23.04.35.04l.4-.01.66.03.45-.03.33.03c.15 0 .32-.02.48 0l.33.04h1.4c.28-.02.56.02.84.02l.42-.03.27.02c.09 0 .2-.01.27.01l.02.02c.06.1.04.26.04.38 0 .4-.02.77 0 1.15v.76l-.01.24.02.52-.03.51.04.68-.03.25c0 .15.03.29.02.43l-.02.45-.01.55c0 .14-.02.28-.03.41l.05.67-.03.25c0 .18-.02.37-.01.55l.03.98-.02.2.01.43-.02.54c0 .13.03.25.02.38l-.02.2v.28c0 .34-.03.68-.03 1.03l.02.52c0 .07.02.13.03.2l-.02.35.01.22c0 .13-.02.25-.03.38 0 .17.04.35.04.53-.02.5-.05.98-.05 1.48 0 .2.03.39.03.59l-.03.33-.01.7-.04.38.02 1.43-.03 1.01.03.54-.02.2v.38l.01.91v1.12l-.02.31.03.2-.04.64c0 .19.03.38.01.57l-.06.35-.05.37c-.04.22-.2.52-.3.7-.1.16-.27.25-.4.38-.07.07-.16.12-.24.18-.14.13-.3.26-.46.35l-.32.12-.64.27-.62.2-.15.06a.78.78 0 0 0-.35.1c-.1 0-.2.01-.27.05a.88.88 0 0 0-.37.09 4.53 4.53 0 0 1-.76.16c-.1 0-.22-.02-.3.02-.06 0-.13 0-.18.03-.09 0-.2-.01-.27.03l-.14.02c-.07 0-.15 0-.2.03a.42.42 0 0 0-.2.04c-.12 0-.3-.02-.4.03l-.13.02c-.12 0-.26-.05-.36.01-.07 0-.15 0-.2.02l-.11.01c-.11 0-.25-.02-.35.02l-.14.01-.1.02-.1.02-.16.01c-.07 0-.15 0-.2.04l-.14.01c-.08 0-.17 0-.23.04-.07 0-.14 0-.2.03-.06 0-.13 0-.17.03a.3.3 0 0 0-.16.04l-.1.01c-.09 0-.2.03-.28.07a.26.26 0 0 0-.15.04c-.18 0-.34.08-.5.13-.1.05-.23.1-.35.13-.23 0-.47.22-.64.36-.15.12-.34.18-.49.32-.4.38-.65.89-.86 1.38Zm-.45.79c0 .03-.1.01-.12 0l-.67-.1-.33-.02-.43-.06h-.38a27.8 27.8 0 0 1-2.16-.38 1.26 1.26 0 0 1-.45-.15c.32.06.69.04 1.03.05.3.02.6.05.9.05l.27.03.28-.02.38.03h.25l.31.06c.26.01.68-.08.9 0 .13.06.23.37.24.5h-.02Zm-4.76-.95-.28-.02c-.11-.02-.23-.03-.34-.07l-.24-.08-.38-.07c-.14-.03-.27-.1-.4-.14-.06-.03-.14-.04-.2-.09h-.02v-.01l.2-.02c.24 0 .52.03.78.02.2 0 .4.01.57-.05l.81.03.35.03c.2 0 .4-.05.6-.04.28 0 .57.05.86.05h1c.14 0 .3-.02.46 0 .2.02.41.28.51.44.02.02.04.06.02.08-.07.06-.3 0-.4.04-.1 0-.28-.05-.37 0h-.86c-.1 0-.22-.04-.31 0l-.83-.05h-1.14l-.4-.05Zm-2.64-.86c-.3-.09-.52-.32-.8-.42v-.04l.83.01c.14 0 .3.04.45.03.2 0 .38-.03.58-.03h.48c.09 0 .19.01.26-.01.15.02.3 0 .45 0l1.34.03c.35 0 .71 0 1.04.03h.15l.32.02c.31.1.61.23.88.41.02.01.07.05.06.08l-.1.04-.16.01c-.2 0-.39-.03-.6-.03-.05 0-.12-.02-.18 0-.1 0-.22-.05-.3 0l-.68-.03c-.09 0-.2-.01-.28.02l-.63-.01c-.13-.01-.32-.08-.45-.03-.1 0-.23-.02-.31.03-.11 0-.35-.03-.43.02-.47 0-.95-.01-1.4-.06-.17-.02-.36-.02-.52-.07Zm-1.8-1.05c-.06-.03-.18-.08-.2-.17l1.23.04h.84c.37.03.72.09 1.08.11.27.02.52.01.78.05l1.27.18.93.13c0 .03-.03.02-.05.02 0 .03-.06 0-.09 0a9.44 9.44 0 0 0-.74-.02c-.08 0-.18-.01-.24.02l-.17.01-.7-.02-.47.02c-.11 0-.27-.03-.36.01l-.9-.02c-.1 0-.23-.02-.3.01h-.47l-.31-.05c-.23-.01-.46 0-.65-.05-.18-.06-.32-.17-.47-.27Zm-.37-.4a.9.9 0 0 1-.61-.23c-.07-.05-.14-.09-.18-.16.3.08.6.15.91.21.24.05.48.15.74.16v.01l-.37.02-.35-.03-.14.01Zm-2.34-29.4c0-.06.1-.16.14-.2a1 1 0 0 1 .36-.26c.2-.07.47-.03.7-.03.3-.02.61 0 .91-.02l.85-.02.53.02a38.59 38.59 0 0 1 2.51.04c.38 0 .76-.03 1.16-.02.45 0 .9.04 1.37.04.26 0 .53-.04.81-.03.17 0 .32.04.5.04.46 0 .9-.03 1.36-.03h.91l.24.02.45-.01.24.03.17-.03h.32c.14 0 .26.04.4.04l.37-.03 1.48-.01.5.02c.3-.01.61-.04.93-.04.3 0 .6.04.9.03l.49-.03.3.02c.43-.02.94-.02 1.39 0 .39.01.81-.02 1.22 0 .09 0 .17.02.26.03.33.02.67.04 1.01.02l.43-.06.38-.04c.28 0 .54.03.83.03.13 0 .3-.04.42 0 .06.01.12.07.17.12.03.02.24.21.18.25-.1.07-.3.01-.41.06-.2 0-.66-.04-.8.03h-1.9c-.07 0-.15 0-.2.02-.12 0-.38-.03-.48.02l-.75-.02c-.09 0-.2-.02-.26.01-.06 0-.14 0-.2.02l-.15.01h-.2c-.1-.01-.3-.08-.4-.03-.12 0-.28-.03-.38.01l-.15.02c-.08 0-.2-.03-.26 0l-.96-.01c-.1 0-.25-.02-.33.01l-.1.02c-.18 0-.34-.03-.5-.03l-.86-.01c-.13 0-.4-.03-.5.01-.06 0-.14 0-.2.02h-.5c-.1 0-.27-.04-.37 0-.47 0-.9-.03-1.36-.03-.11 0-.28-.03-.38.02l-1.34-.01c-.12 0-.29-.05-.4 0l-.43-.01c-.09-.01-.2-.06-.29-.02-.1 0-.25-.03-.34 0-.09 0-.32 0-.38.02-.07 0-.14 0-.2.03-.05 0-.12 0-.16.02h-.67c-.1 0-.2-.02-.28.01-.14 0-.31-.07-.45-.02l-1.17-.04c-.1 0-.26-.05-.36 0h-.51c-.1-.01-.23-.05-.32 0l-.4-.03h-1.33c-.12 0-.32-.04-.42 0-.16 0-.56-.04-.68 0l-1.17-.02c-.1 0-.3-.01-.37.02-.11 0-.26-.05-.37 0l-.3.01-.27.02c0-.03 0-.02.02-.02Zm.86-.77.1-.08c.13-.1.47-.4.6-.4l.8.02.47-.03.48.02h.75c.5 0 .95.05 1.45.05.11 0 .2-.03.3-.03l.78-.01.42.03.43-.03.48.02c.36-.01.74-.03 1.12-.03h.51c.09.02.18.04.28.04.2 0 .36-.03.55-.03.28 0 .57.04.86.05l.43-.01.55.02.27-.01.23.02.24-.02h.67c.08 0 .15-.02.23-.03l.36.05H27l.31-.01h.57l.4-.03h.7l.33-.03.28.03h.44l.96.04c.56-.01 1.11-.06 1.67-.07.19 0 .37.03.55.02.11 0 .2-.03.32-.03h.86l.55.04.34-.04c.1-.01.23 0 .33-.02l.63.03c.09.03.5.35.53.44l-.06.01c-.11 0-.28-.02-.37.02-.25 0-.55-.07-.77.05l-.12.01c-.09 0-.19 0-.26.02-.17 0-.5-.04-.64.03l-.36-.04h-.76c-.14-.01-.41-.06-.54 0l-1.57-.01-.7-.02c-.1 0-.2-.02-.28.01h-.59c-.1 0-.23-.04-.32 0h-.55c-.08 0-.17-.02-.23.01l-.12.02h-.67c-.08 0-.2-.02-.26 0-.15 0-.56-.03-.67.02-.14 0-.44-.03-.55.02l-.1.01c-.23 0-.41-.04-.64-.03l-.17.01c-.18 0-.47-.06-.62 0h-.14c-.14 0-.4-.1-.53-.04l-.62-.02c-.08 0-.16-.01-.23.02-.13 0-.38-.07-.5 0h-.85l-.3-.03h-.46c-.09 0-.2-.02-.28.01-.07 0-.16 0-.22.02-.09 0-.18 0-.24.03h-.3c-.15-.03-.36-.12-.53-.06l-.67-.02c-.07 0-.16 0-.22.02-.06 0-.13 0-.17.02l-.16.01c-.31 0-.58-.03-.88-.06l-.19-.03h-.84c-.15 0-.41-.04-.53 0-.08 0-.18-.02-.24 0-.1 0-.28-.03-.35 0l-.14.02-.77.01c-.08 0-.19-.01-.26.02h-1.1v-.04Zm1.09-.79c.03 0 .1-.08.13-.1l.51-.33c.1-.05.29-.04.41-.04l.48.04.9.02.46-.03h.48l.37-.02c.2 0 .41.04.61.04.32 0 .63-.03.93-.03l.26.02.72-.01h1.35c.33 0 .67.03 1.01.03h.73l.27-.01.57.05c.27 0 .5-.05.77-.04l.62.03c.22 0 .43-.02.66 0l.29.02.24-.03.6-.01c.34-.02.67.02 1 .02l.57-.04h1.38l.29.02 1.46-.01.64-.03.7.06c.21 0 .44-.04.64-.05.13 0 .28.01.4-.04.17 0 .35 0 .5.06.08.02.14.1.2.15l.12.06.34.24c0 .03-.03.03-.05.05h-.38c-.1-.02-.27-.06-.38-.02l-.12.02h-.86l-.79-.01c-.08 0-.2-.02-.26.01-.07 0-.16 0-.22.02-.13 0-.3-.03-.41.02-.1 0-.37-.02-.45 0-.12 0-.3-.02-.4.02-.1 0-.21-.03-.3 0l-.95-.02c-.11 0-.26-.02-.35.02l-.22-.02h-.72c-.08-.01-.2-.04-.26-.01-.24 0-.66-.04-.85.03l-.44-.02-1.14.01c-.15 0-.41-.03-.53.02-.06 0-.13-.01-.18.01l-.56-.02h-1.64c-.27-.02-.55-.03-.84-.03-.08 0-.19-.03-.26 0h-.29l-.5-.02-.16.01h-.51c-.08 0-.18-.01-.24.02h-.8c-.07-.01-.18-.04-.25-.01l-1.09-.02c-.08 0-.2-.04-.27 0-.06 0-.14-.01-.19.01-.45 0-.9 0-1.34-.03-.2 0-.65-.08-.81 0l-.1.02-.7-.02c-.25 0-.56.03-.77-.06h-.03v-.02Zm1.1-.75h.02c0-.03.11-.09.14-.11.08-.06.17-.1.25-.15.1-.06.18-.13.29-.16.27-.08.68-.04.98-.03.28 0 .58-.02.87-.01l.7-.01h.25c.45-.04.98.01 1.45.01.22 0 .48-.02.72 0 .3.02.58.07.88.07h.53c.23-.02.46-.06.7-.06.5 0 1.02.04 1.52.04l.19-.01.24.03.4-.03.48.02.5-.03c.33 0 .67.05 1.01.03.14 0 .29-.04.43-.04h.43c.09 0 .17.04.26.03l.4-.02c.17 0 .36.02.55.01.13 0 .25-.03.4-.03h.58c.1 0 .2.01.3-.01.37.02.76.02 1.14.02.16 0 .34.03.5.02.35-.02.72-.03 1.09-.02.17 0 .36-.02.51.02.07.02.12.06.17.1l.47.3c0 .07-.25.06-.31.1-.09 0-.21-.02-.28.01-.08 0-.2-.01-.26.02L33.5 9l-.18-.03c-.23-.01-.5 0-.72.02-.08 0-.17-.02-.24.01h-.28l-.12.01L30.21 9c-.16 0-.38-.06-.52.01h-.32c-.13-.01-.39-.05-.5 0-.08 0-.2-.02-.26.01-.12 0-.34-.04-.43 0h-.34c-.1 0-.26-.05-.35 0l-.12.01h-.76c-.1 0-.24-.02-.32.01-.16 0-.42-.05-.55 0h-.21c-.12 0-.28-.05-.4 0-.07 0-.18-.02-.24.01h-1.17c-.18-.01-.55-.1-.72-.02l-.14.01c-.16 0-.3-.03-.45-.03L21.3 9c-.13 0-.23-.03-.35-.04h-.74l-.17.03h-1.1l-.59-.01c-.15-.02-.38-.08-.53-.02-.06 0-.14 0-.19.02-.08 0-.16-.01-.22.01l-.54-.01h-.24l-.19.02-.62-.03c-.15 0-.34.02-.48-.02v-.02c-.02 0-.02 0-.02-.02Zm1.76-1 .15-.1c.43-.28 1.04-.14 1.56-.13h.9l.27.02.5-.01c.65 0 1.26.02 1.9 0l.37-.02.5.01h.17l.2.02.25-.03c.3.02.6.06.93.06.16 0 .3-.05.46-.05.41 0 .8.04 1.19.04.2 0 .39-.04.59-.04.3 0 .63.02.96.01.17 0 .32-.03.5-.03l2.13.01c.13 0 .22.04.35.04l.48-.04c.2-.02.54.03.7-.02.25.02.43.16.64.25.19.07.45.13.6.25.03 0 .02.02.02.04l-.07.02H33c-.13 0-.3-.03-.41.03l-.16.01c-.16 0-.55-.05-.67 0-.07 0-.18-.01-.24.01l-.48-.02c-.1-.02-.27-.07-.38-.03-.1 0-.33-.03-.41.01h-.59c-.16 0-.54-.04-.69.01l-.1.02h-.45c-.06 0-.14-.03-.2 0-.12 0-.35-.05-.45 0-.12 0-.3-.03-.4.01-.07 0-.18-.02-.24.01h-.65c-.1 0-.22-.02-.3.02l-.7-.03c-.08 0-.19 0-.26.02l-.6-.02h-.69l-.19-.04h-.58c-.08 0-.2-.02-.26.02l-.12.01c-.06 0-.14 0-.19.02-.76 0-1.52-.05-2.27-.07H20c-.09 0-.2-.03-.28 0-.13 0-.33-.03-.44.01l-.97-.02c-.13-.01-.49-.05-.6 0-.13 0-.38-.03-.48.01l-.14.02c-.18 0-.32-.04-.5-.04 0-.09.4-.23.48-.27Zm1.37-.55c.06 0 .2-.1.27-.13l.21-.07.18-.1c.2-.07.44-.13.67-.17.15-.03.33 0 .48 0 .2.01.39-.01.58-.01.11 0 .25.01.35-.01h.53l.72.02c.81.03 1.68.05 2.52.05l.39-.03c.2 0 .4 0 .59.02.95-.01 1.94-.04 2.9 0l.97-.02.4.01c.28.05.5.25.77.3.15.03.52.08.62.18l-.07.02-.12.02-.4-.01-.36-.06h-.36c-.08 0-.17-.02-.23.01-.1 0-.33-.03-.4.01-.1 0-.2 0-.27.02-.12 0-.28-.03-.38.02-.19 0-.67-.05-.8.03-.1 0-.22-.04-.3 0-.11 0-.2-.03-.3-.04h-.39c-.08 0-.18-.02-.26.01-.1 0-.23-.02-.32.02-.11 0-.25-.03-.34.01l-.9-.02c-.1 0-.22-.02-.3.01-.06 0-.13 0-.18.02-.06 0-.13 0-.18.02-.27 0-.54-.04-.8-.04h-.9c-.11-.01-.36-.05-.45 0l-.72-.01c-.09 0-.2-.02-.27.01l-.1.02-.97-.01-.16-.03h-.36c-.06 0-.16-.03-.22 0-.46 0-.9-.03-1.34-.03v-.04Zm2.5-.75c.18 0 .32-.09.48-.12l.81-.15c.18-.03.38 0 .57-.02.26-.02.52-.1.79-.1.1-.02.2-.04.3-.04.14 0 .26 0 .37-.04l.76.01.48.04.34.04.52.01.24.03.34.01.43.08h.18c.06.01.11.04.17.07l.24.06c.32.05.68.05 1 .11 0 0 .04.01.05.03-.03.05-.55 0-.64.02l-.22.02-.47-.03c-.04 0-.13-.02-.17 0-.09 0-.2-.03-.27 0l-.23.03c-.19 0-.51-.1-.69 0-.21 0-.4-.03-.6-.04-.1-.01-.23-.04-.33 0-.1 0-.16.03-.26.03s-.2-.05-.3 0c-.07 0-.13 0-.18.04l-1.36-.01-.26-.04h-.61c-.13 0-.47-.04-.55 0-.32 0-.61-.03-.93-.03V6.6Zm14.47 33.94c-.17 0-.46.03-.6-.02h-.04v-.01l.21-.1c.28-.1.58-.15.83-.31.16.1-.34.4-.4.44Zm-24.17-2.52V38c-.11 0-.42-.4-.5-.49v-.01h.03c0-.04.1-.03.13-.04.08 0 .2 0 .26.04.07.05.1.42.1.52h-.02Zm-.71-.8a1.73 1.73 0 0 1-.44-.46c0-.03 0-.05.03-.08l.3.02c.15 0 .58-.05.69.03.06.05.06.4.04.47 0 .04-.05.03-.07.03-.16.02-.4.03-.55 0ZM9.5 35.96h.02v-.02l.15.03.33-.02c.15-.02.31 0 .45-.04.17 0 .5-.03.63.04.03 0 .02 0 .02.02 0 .1.03.36 0 .43l-.1.05-.2.01c-.08 0-.3-.03-.35-.02l-.13.02c-.14 0-.3.02-.42-.01-.1-.04-.36-.39-.4-.5Zm-.15-.26c-.06-.03-.3-.37-.26-.43.05-.06.43-.04.54-.07h1.46c0 .14-.02.3.01.42l-.22.05-.24.02-.28-.02-.3.02-.16.01c-.07 0-.15 0-.2.04-.12 0-.25 0-.35-.04Zm-.33-.7c-.06 0-.12 0-.17-.03l-.13-.17c-.1-.14-.2-.26-.22-.43.16 0 .28.03.44.03h1l.33-.02c.22 0 .46.05.67-.01l.13.04c.06.05.04.38.04.49 0 .03-.05.02-.07.03h-.52c-.07 0-.17-.01-.22.02-.12 0-.3-.04-.4.01-.16 0-.48-.04-.6.03-.09 0-.2-.01-.28.02Zm-.97-1.4c.03 0 .06-.03.09-.04.24.03.48.06.74.07l.2-.01c.07 0 .13.02.2.03h.39c.16 0 .29-.03.45-.03l.32.05c.18 0 .48-.05.63.04.05.04.03.32.04.4h-.02c0 .05-.4.02-.48.05-.07 0-.15-.01-.2.01h-.76l-.24-.03-.38-.01c-.07 0-.17-.01-.22.02-.08 0-.18-.02-.24.01-.08 0-.16 0-.22-.03-.13-.09-.25-.4-.3-.54Zm-.12-.29c-.1-.06-.17-.33-.2-.44h.02v-.02l.36-.01c.1 0 .21 0 .3-.02h.63l.24.02.26-.01c.22 0 .43.02.65.03l.3-.01c.21.01.42.06.65.07l-.02.45h-.02c0 .03-.1.02-.12.03-.66 0-1.31-.01-1.95-.03l-.25-.03h-.36c-.08 0-.17-.01-.23.01-.1 0-.18 0-.26-.04Zm-.35-.75-.06-.13c-.04-.08-.12-.24-.06-.33l.08-.06c.21 0 .42.01.6.03h.68c.07 0 .15 0 .22-.02l.52.02c.28 0 .56-.02.84-.01.25 0 .49.04.74.05 0 .1.02.43-.03.47a141.13 141.13 0 0 1-.73.02H9.7l-.3-.03h-.6c-.11-.01-.3-.06-.4-.01h-.81Zm-.32-.8c-.05-.05-.22-.42-.14-.48.17-.13.6.01.83-.06l.72.03.51.01.26.03h1.26c.11.01.32 0 .4.06.06.04.05.37.02.43-.06.1-1.08-.03-1.27.05l-.58-.03-.7.01-.4-.04-.25.01c-.09 0-.2-.03-.29 0l-.15.02c-.08 0-.16 0-.22-.05Zm-.4-1.07c-.01-.03-.05-.1-.03-.14.04-.09.47-.06.57-.1l.45.03h.87l.23.03h.51l.36.01c.12 0 .2-.02.31-.03l.7-.01c.1 0 .22-.01.32.02v.03c.03 0 .01.02 0 .04 0 .07.01.4-.04.43l-.15.03h-.62c-.1 0-.24-.03-.33 0-.25 0-.5 0-.76-.02-.08 0-.23-.03-.3 0h-.54c-.13 0-.51-.05-.62 0l-.34-.03c-.13-.01-.41 0-.5-.06-.06-.04-.07-.16-.09-.23Zm-.13-.5c-.1-.07-.12-.36-.14-.48.1 0 .22 0 .31-.03.25 0 .51.02.76.04.08.01.14.03.22.03h.64c.17 0 .34-.04.52-.03l.38.02.29-.01h.64c.16 0 .69-.05.78.03.05.04.05.15.05.22 0 .06.02.17-.02.21-.06.06-.28 0-.37.04-.07 0-.15 0-.2.02-.1 0-.24-.02-.32.02h-.7c-.12 0-.28-.04-.38 0H8.8c-.15 0-.42-.05-.56 0-.18 0-.35-.03-.53-.03-.2-.01-.85.03-.96-.05Zm-.2-.73c-.06-.04-.06-.15-.08-.21-.01-.06-.05-.17-.02-.23 0-.03 0-.02.03-.03.12-.03.25-.02.38-.02h.98c.12-.01.27.01.38-.02.72.04 1.46.02 2.22.03.15 0 .63-.03.72.04.04.02.02.34.02.4l-.1.02-.11.02c-.14 0-.39-.03-.5.01h-.36l-.14.02c-.17 0-.5-.04-.64.03h-.3c-.18-.02-.5-.09-.66-.02-.17 0-.44-.06-.58 0-.16 0-.52-.04-.64 0-.15 0-.5.04-.6-.04Zm-.2-1.25h.01c0-.02 0-.01.02-.01.33 0 .68-.02 1.03-.01.2 0 .44.03.6-.02.27.02.57.04.83.04l.41-.01.5.04c.1 0 .16-.04.26-.04h.46l.16.01c.18 0 .42-.03.57.05.03 0 .02 0 .02.03v.4h-.02c0 .03-.3 0-.35.03h-.65c-.11 0-.24-.02-.33.03-.07 0-.16-.03-.22 0-.19 0-.74-.05-.86.03-.17 0-.3-.04-.45-.04-.54-.01-1.1 0-1.63-.04-.1 0-.24.02-.3-.04-.08-.07-.06-.32-.06-.45Zm-.13-.55c-.01-.07-.02-.18.05-.22.13-.06.35-.02.51-.02h1.38c.12-.01.27.01.38-.02h.44l.18.03.63.01.24.01h.8c.1 0 .26-.01.36.03.06 0 .02.41 0 .47-.09 0-.18-.03-.26 0-.1 0-.24-.03-.31.01H10c-.1 0-.22-.02-.3.01-.1 0-.48-.03-.53 0-.1 0-.26-.02-.35.02-.1 0-.2-.04-.29 0-.3 0-.6-.04-.91-.05l-.28.02c-.1 0-.4-.03-.48.02-.12 0-.53-.03-.6-.1a.8.8 0 0 1-.06-.22Zm-.09-.93h.02c0-.03.06-.02.08-.02.08 0 .16-.03.25-.03.22 0 .57.05.75-.03.1.03.32 0 .43 0l.49.04h.3l.18-.02h1.05l.29.02.3-.02.28.03c.17.01.46-.05.6 0 .04 0 .04.06.04.1 0 .1.05.25.01.35-.03.08-.56 0-.67.05-.15 0-.44-.03-.56.02-.13 0-.44-.06-.54-.02l-.32-.02h-.74c-.12 0-.29-.03-.38.01-.16 0-.43-.03-.55.01-.2 0-.38-.03-.57-.04h-.12c-.07 0-.17 0-.23.02-.38 0-.4-.08-.39-.45Zm-.05-.86c.12 0 .23-.02.35-.03.18 0 .54.04.69-.01h.24l.17.03h.43c.11 0 .22-.03.35-.03h.32c.09.02.17.04.26.04.78.02 1.53 0 2.29.03v.02c.03 0 .02 0 .02.03 0 .14.02.33-.03.45l-.01.02-.3.01h-.48c-.08 0-.17-.01-.24.01h-.36c-.1-.01-.25-.04-.34 0-.14 0-.33-.03-.45.02l-2.08-.02h-.38l-.2-.03c-.06 0-.14 0-.19-.04-.08-.06-.09-.4-.06-.5Zm0-.79c.03-.03.09-.03.13-.05.52 0 1.06.03 1.55.04l.4-.01 1.32.02.26-.02.2.02.9.02c.1 0 .24-.03.32.02.08.05.02.4.02.5h-.02c0 .04-.32 0-.38.02H10c-.1 0-.23-.02-.31.01-.11 0-.24-.04-.34 0-.39 0-.75-.03-1.12-.02-.07 0-.14-.01-.2.01l-1-.02c-.11 0-.25-.05-.35-.02l-.16.02c-.14 0-.33 0-.44-.07-.07-.05-.07-.4-.01-.47Zm-.02-.8c.7 0 1.41.03 2.11.05h.26c.2 0 .42.03.62.04l.24-.03h.62c.18.01 1.24.03 1.3.09.04.04.03.14.03.2-.01.38-.2.14-.42.23l-1.72-.02c-.12 0-.43-.04-.51 0l-2.04-.02-.5-.03c0-.06-.02-.12-.04-.18a.8.8 0 0 1 .05-.34Zm.1-.74.27-.02c.07 0 .15 0 .22-.02.09.02.18 0 .27 0h.66c.17 0 .33.02.5.03l.65-.02 1.19.03c.23 0 1.16-.05 1.28.05.09.07.06.37.06.5l-.24.03h-.35c-.08 0-.2-.03-.27 0l-.76-.02c-.08 0-.2-.01-.26.02l-.69-.02-1.05-.01c-.1 0-.4-.05-.48-.02-.12 0-.3-.02-.4.02-.23 0-.47-.06-.7-.08 0-.12-.02-.44.1-.47Zm.13-.78c.27-.03.54 0 .8 0l.39-.01h1.5l.22-.01.41.03 1.6.02.02.53h-.02v.02l-.14-.02-.27-.01c-.08 0-.21-.04-.28-.01-.14 0-.33-.04-.45.01-.23 0-.45-.03-.67-.03h-.26c-.1 0-.22-.03-.3 0-.12 0-.33-.03-.42 0h-.5c-.09 0-.21-.01-.29.02h-.58c-.08-.01-.2-.05-.28-.02-.19 0-.43.03-.6-.02-.03 0-.02-.02-.03-.04-.02-.14 0-.44.15-.46Zm-.1-.38c.06-.34.04-.38.41-.4.09 0 .17.01.25-.01.1.02.22.01.34.02l.69.04.34-.02c1.03 0 2.05-.01 3.03.05 0 .16 0 .32-.05.45 0 .07-.34 0-.42.03H9.3c-.18-.02-.57-.1-.74-.03-.08 0-.2-.03-.27 0l-.1.02h-.66a5.68 5.68 0 0 0-.72-.05c-.06 0-.14 0-.2.02-.14 0-.3.03-.42-.04-.03 0-.01-.06 0-.08Zm.12-.69c0-.1.02-.37.12-.41.12-.05.3-.03.44-.03l.62-.01.19-.02c.5.05 1.05.04 1.58.04l.43.02c.22 0 .44-.02.67-.01l.31.01c.19 0 .43-.03.57.08.05.04.03.32.03.41h-.02c0 .04-.2 0-.24.02h-.77c-.12 0-.28-.03-.38 0-.09 0-.28-.02-.35 0-.14 0-.32-.05-.46 0l-.86-.04c-.08 0-.18 0-.24.02-.14 0-.44-.06-.55 0l-1.07-.01v-.02c-.03 0-.02-.03-.02-.05Zm.3-1.14.1-.08c.4 0 .78.03 1.16.04h.45c.09 0 .17-.03.27-.03l1.55.05h.48c.17 0 .47-.05.62.03.08.05.06.37.03.47-.06 0-.17-.01-.22.02l-.33-.02h-.9c-.08-.01-.22-.05-.3-.01-.64 0-1.26-.02-1.91-.03-.27 0-.55 0-.81-.02-.1 0-.2 0-.3-.04 0-.08.06-.32.1-.38Zm.28-.82c.04-.03.1-.03.16-.05l.24.03h.3l.35.01c.15 0 .29-.02.43-.03.32 0 .66.05.98.05h1.16c.14 0 .73 0 .8.06.03.05.02.15.02.22 0 .1 0 .19-.07.25l-.41.01c-.09 0-.2-.03-.28 0h-1c-.12 0-.29-.07-.4 0-.42 0-.81-.01-1.2-.04-.1 0-.37-.03-.46.01l-.1.02c-.25 0-.46-.06-.7-.07 0-.12.1-.4.18-.47Zm.18-.73c.05-.05.13-.05.19-.07.21 0 .42.04.62.05h.65l.23-.02c.12 0 .24.03.38.03l.44-.02.6.03c.36-.01.76-.02 1.1.02 0 .09.05.37 0 .43l-.1.05c-.18 0-.38-.02-.52.05-.1 0-.2-.03-.3-.04H10l-.17.01-.4-.02-.17-.03-1.2-.02c-.15 0-.4-.03-.52.01-.12 0-.5 0-.57-.04-.07-.05.04-.38.1-.42Zm.17-.33c.02-.13.1-.4.2-.48v-.02c.32 0 .63.04.94.03h.9l.27.03.36-.01.28.01.74.01c.1 0 .24-.02.32.03.05.03.03.36.04.44h-.02c0 .03-.08.02-.1.03-.08 0-.2-.02-.26.02-.16 0-.43-.07-.57 0-.09 0-.21-.04-.3 0h-.18c-.24 0-.47-.02-.7-.04-.1 0-.19.03-.28.02l-.4-.02c-.06 0-.13-.02-.19 0-.07 0-.16 0-.22.02-.21 0-.65.04-.8-.04-.04 0-.03 0-.03-.03Zm.41-1.04c.03-.05.03-.12.06-.17.03-.04.07-.04.1-.06l.66.02.36-.02c.3 0 .63.04.93.04.2 0 .38-.02.57-.03.32 0 .64.01.95.04 0 .05.02.1.03.14 0 .13 0 .27-.02.4-.07 0-.16-.01-.22.01h-.88l-.69-.03c-.14 0-.42-.05-.55 0a.5.5 0 0 0-.2.03l-.49-.05h-.72v-.02H7.5c0-.1.1-.2.13-.3Zm.45-1c.13 0 .24.03.36.02a17 17 0 0 1 .96-.02l.24.01h1.09c.2 0 .37.06.56.07 0 .1.03.36-.02.43-.07.09-.74.06-.89.05-.12-.01-.3-.06-.41 0h-.41c-.09-.01-.19-.04-.26 0l-1.02-.01c-.13-.01-.26-.04-.4-.04 0-.2.1-.37.2-.51Zm.17-.31c0-.1.12-.33.18-.4l.12-.05c.29 0 .56.03.84.02h1.08c.2 0 .62-.03.77.04.07.04.07.16.07.23s0 .24-.07.26l-.13.01c-.14 0-.3-.05-.43 0-.26 0-.52 0-.78-.02-.1 0-.36-.04-.44 0-.05 0-.1 0-.16.02-.22 0-.43-.03-.64-.04-.13 0-.28 0-.4-.04-.02 0-.01-.01-.01-.03Zm.64-1.17c.11-.05.4-.02.54-.01.26 0 .52-.02.77-.01.15 0 .31.02.47 0l.22-.02c.1 0 .22.01.31-.02h.09v.02c.02 0 .01 0 .01.02 0 .08 0 .48-.05.5-.05.04-.14.03-.2.03h-.35c-.13-.01-.42-.06-.53 0-.15 0-.32-.06-.45 0-.18 0-.49-.08-.62-.01-.07 0-.18-.01-.24.02l-.26-.02c0-.09.21-.47.29-.5Zm.27-.4c.05-.1.17-.32.27-.37.07-.04.17-.04.24-.07h.42l.62.04.27-.03c.1 0 .21.03.33.04 0 .1.02.38-.03.46l-.1.05c-.1 0-.24-.02-.32.03h-.26c-.11-.02-.28-.07-.4-.02l-.1.02-.14.01-.27-.01c-.18 0-.4.02-.55-.03-.06 0 .01-.11.02-.13Zm.6-.94c.04-.07.1-.17.17-.2.05-.04.13-.02.2-.02.19 0 .4-.02.61-.01.11 0 .24.01.33-.02h.2l.04.14v.36h-.02c0 .03-.14.02-.17.03-.18 0-.37 0-.55-.02-.07 0-.15 0-.2.02-.15 0-.4-.03-.52.02l-.2-.02c0-.1.06-.2.11-.28Zm.52-.53c0-.12.17-.18.23-.26.06-.1.11-.17.19-.25.14 0 .48 0 .58.05.03 0 .02.01.02.04v.44h-.02c0 .03 0 .02-.02.02-.13 0-.32-.05-.44 0l-.12.01c-.15 0-.3.02-.42-.03h-.02c0-.02 0-.02.02-.02Zm.63-.77.33-.4c.06.06.08.35.02.42-.06.06-.27.05-.34.01h-.01v-.03Zm27.17 25.74.16-.23c.08-.15.14-.33.18-.5h.41v.01h.02c0 .16-.64.67-.78.76v-.04Zm.47-26.27c.06.05.4.35.35.43-.02.05-.12.04-.17.07-.05 0-.12 0-.15-.03-.06-.05-.04-.38-.03-.47Zm.97 1.3-.1.03c-.1 0-.8-.02-.82-.05-.06-.05-.04-.16-.04-.23 0-.1 0-.21.03-.3.18 0 .38-.01.53.04.13.04.36.38.4.5Zm.15.26c.06 0 .14-.01.19.02a.6.6 0 0 1 .18.24c.03.06.1.13.09.21-.01.04-.05.04-.08.05l-.86-.01c-.08 0-.18-.02-.24.01-.08 0-.3 0-.34-.04-.07-.05-.04-.4-.04-.5.37 0 .75 0 1.1.02Zm.7.8c.09.06.27.4.31.5-.03 0-.05.02-.07.04-.1 0-.44-.03-.5 0h-.33c-.14-.02-.34-.09-.48-.03l-.12.02c-.21 0-.4-.04-.62-.05 0-.15-.07-.43.06-.52v-.02l1.15.01c.2 0 .44-.03.6.06Zm.53.8c.07.03.08.1.12.17l.09.13.08.17v.01l-.14.04c-.17 0-.5-.1-.65-.04l-.12.01-.31-.01-.86-.01c-.1 0-.23-.02-.3.02-.08 0-.18 0-.22-.05-.06-.06-.03-.4-.03-.5.56 0 1.12.03 1.67.04.14 0 .56-.06.67.01Zm.58 1.04c.03.07.05.12-.02.18-.06 0-.15 0-.2.02-.12 0-.3-.03-.4.01-.06 0-.14 0-.19.02-.13 0-.38-.07-.48-.02h-.55l-.17.01h-.43c-.07 0-.16-.02-.23 0-.08 0-.16 0-.24-.04-.03 0-.02 0-.02-.03 0-.1-.04-.41.04-.46.06-.03.2-.02.28-.02h.5c.1 0 .2.01.29-.01l1.2.02c.12 0 .36-.02.45.03.1.05.12.19.17.29Zm.2.46c.09.05.18.35.2.45.09 0-.13.07-.13.07-.12 0-.37-.03-.46.01-.12 0-.36-.05-.45 0-.2 0-.4-.03-.6-.01h-.14c-.14 0-.52-.05-.62 0-.16 0-.9.03-.95-.06-.02 0 0-.18 0-.22 0-.06 0-.15.04-.18.1-.1.43-.09.57-.1h.07c.23.03.49.01.74.01.47 0 .93 0 1.4.02.1 0 .22-.05.33 0Zm.36.79c.03.02.22.45.16.5-.11.09-.44-.04-.57.02-.08 0-.19-.02-.24.01l-.14.02h-.3c-.12-.02-.39-.1-.51-.04-.07 0-.14 0-.2.04l-.65-.01c-.08 0-.2-.02-.27.02-.1 0-.26-.05-.36 0-.1 0-.32 0-.39-.05-.05-.04-.04-.41-.04-.5h.02c0-.04.3-.04.36-.06h.65c.17.02.34.04.52.04.16 0 .3-.02.45-.03l.93.02.3-.01c.09 0 .21-.02.28.03Zm.46 1.11c.06.16.03.12-.09.19h-.8c-.12-.01-.3-.06-.4-.01h-.46c-.07 0-.17-.03-.23 0-.1 0-.25-.03-.33.01h-.4c-.05 0-.14-.03-.2 0-.16 0-.44-.06-.58 0-.15 0-.32 0-.43-.04-.03 0-.03-.01-.03-.04a7 7 0 0 1 0-.2c0-.12-.03-.22.1-.24h.36l.3-.02.3.02c.41 0 .8-.03 1.22-.02.27 0 .65.04.88-.04.16.04.58-.06.67.08.06.09.08.2.12.31Zm.19.45c.07.05.2.4.07.44-.1.05-.3.02-.42.02h-1.07c-.1 0-.27-.03-.36 0-.08 0-.2-.01-.28.02-.13 0-.52-.03-.61.02-.1 0-.25-.02-.33.01-.12 0-.29-.03-.4.02-.26 0-.49-.06-.75-.06 0-.08-.02-.42.03-.46.1-.07.62-.03.8-.03l.77-.02c.17 0 .34.03.5.02l.4-.02.34.03c.26 0 .54 0 .8-.04l.16-.02c.12 0 .27 0 .35.07Zm.35 1.2h-.02c0 .03-.13.02-.17.02v.02l-.07.01c-.06 0-.15 0-.2.02l-.78-.02c-.08 0-.2-.02-.27.01-.07 0-.14 0-.2.02h-.68c-.12-.01-.26-.07-.38 0-.11 0-.36-.04-.45 0l-.62-.01c-.17 0-.5.02-.65-.04-.05 0-.03-.39-.03-.47h.02c0-.02-.01-.01.01-.01l.36-.03h.6l1.14-.01h.21c.06 0 .11 0 .17-.02a107.8 107.8 0 0 0 1.2.01c.14 0 .27.03.39-.02.07 0 .19 0 .25.05.11.07.14.34.17.47Zm.2.76-.06.03c-.1 0-.23-.02-.32.02-.11 0-.28-.03-.37.02L41.17 21h-.5c-.12 0-.54-.04-.63 0h-.97c-.09 0-.22-.02-.29.02-.06 0-.14 0-.19-.02-.03 0-.02-.01-.03-.04 0-.07-.02-.4.03-.44.03-.04.09-.04.14-.05l.38.02h.7c.18 0 .35-.02.52-.03l.41.02.55-.01.54.02.4-.02c.15 0 .37.03.51-.01a.9.9 0 0 1 .38.05c.08.05.13.33.14.43Zm.17.8h-.01c0 .02-.1.01-.13.03h-.82c-.08-.01-.19-.05-.26-.03l-.31.01c-.15 0-.46-.04-.59 0-.1 0-.26-.02-.36.02h-1.42c-.11 0-.25-.04-.35 0-.12 0-.54 0-.6-.08-.02-.04-.02-.11-.02-.17 0-.1-.01-.23.1-.25l.22-.02c.3-.03.6-.02.92-.02h1.3c.25 0 .57.07.8-.02.23 0 1.4 0 1.48.1.08.1.06.29.05.42Zm.13.75h-.01c0 .03-.06.02-.09.02h-.38c-.12-.02-.31-.06-.43 0-.11 0-.28-.03-.38 0-.06 0-.13 0-.19.02-.23 0-.45-.03-.67-.03h-.75l-.2.02c-.09 0-.2-.03-.28 0h-.54c-.08 0-.18-.03-.26 0-.15 0-.66 0-.75-.07-.04-.03-.03-.09-.04-.14 0-.1-.05-.26.06-.3.1-.03.23-.01.34-.01l.35-.01.36.01.3-.01h1.42c.31 0 .68.03 1 0 .1-.01.22 0 .32-.02.13 0 .65 0 .72.06.07.06.1.35.1.46Zm.02.75c-.1.1-.54 0-.67.04-.06 0-.13 0-.18.02l-.58-.01c-.12 0-.3-.04-.41 0-.15 0-.52-.05-.62 0-.14 0-.33-.06-.47 0l-.93-.01c-.07 0-.17-.03-.24 0h-.34c-.09 0-.2-.02-.28.01h-.25v-.02c-.04 0-.02-.17-.03-.2l-.02-.16c0-.2.21-.14.34-.2.2 0 .36.05.55.05h.5l.57-.04 2.13.02c.15 0 .84-.03.9.05.04.05.03.15.03.22.01.05.04.19 0 .23Zm.06.78-.15.04c-.13 0-.28-.02-.38.03l-.6-.02c-.07 0-.14 0-.2.02-.08 0-.18-.02-.25.01-.18 0-.47-.06-.62 0-.18 0-.4-.07-.57.01h-.46c-.12-.01-.38-.06-.48-.02-.12 0-.37-.03-.45.01h-.26c-.12 0-.55.03-.6-.05-.05-.05-.03-.15-.04-.23 0-.08-.07-.24.03-.29.14-.06.52-.03.68-.02h1.17c.13 0 .3.02.43-.02.27 0 .54.03.82.02.46 0 .97-.02 1.45 0l.5.03c0 .12.1.4-.01.48Zm.07.49c0 .08 0 .18-.02.25 0 .04-.1.04-.12.06-.09 0-.19-.02-.26.01-.12 0-.3-.03-.4.01h-1.56c-.12 0-.36-.06-.46 0-.14 0-.44-.04-.54 0-.1 0-.26-.05-.36-.01l-.57.02-.87-.01v-.02c-.03 0-.02 0-.02-.03v-.4h.02c0-.03.07-.02.1-.02l1.02-.06h.73c.11.01.2.04.31.04l.27-.03c.4-.01.77-.02 1.16-.01l.83-.01c.1 0 .2 0 .28-.02.1 0 .4-.02.44.05a.5.5 0 0 1 .02.18Zm-.04 1.08c-.09 0-.17.03-.26.03-.15 0-.43-.06-.55 0-.1 0-.26-.03-.34.02-.12 0-.35-.03-.44.01l-.85-.02c-.08 0-.17-.01-.23.01H40c-.1 0-.34-.06-.43-.02h-.45c-.1-.01-.22-.04-.3 0-.08 0-.17 0-.23-.02-.1-.05-.08-.4-.08-.52h.01v-.02l.17.02.49-.01.29.01c.18 0 .35-.02.53-.03l1.83.01h.82c.16 0 .33.02.47-.02h.3c.07 0 .14.03.21.02v.01c.06 0 .03.45.02.52Zm-.07.8c0 .04-.15.03-.18.04l-.12.02h-.79c-.08 0-.2-.03-.27 0l-.78.01-.2-.02-.21.02-.24-.02a39 39 0 0 1-.5-.01c-.1 0-.22-.04-.31 0h-1.46c0-.16.02-.4-.02-.52v-.02h.02c0-.03.06-.02.09-.02l.4-.01c.15 0 .28 0 .42.02.25 0 .48-.03.7-.03l.32.01h.51l.17.02h.54l.19-.02c.13 0 .29.02.41-.02l.5.02c.14 0 .74-.04.82.03.07.06.02.43-.01.5Zm-.1.77-.17.05c-.1 0-.38-.06-.46-.03-.07 0-.15 0-.21.02l-.14.02c-.48 0-.95-.04-1.44-.05-.14 0-.34-.03-.47.02-.12 0-.39-.03-.48.01l-1.19-.01-.4-.03v-.14c.01-.11-.02-.25.05-.34 0-.03.1-.02.13-.02h.92c.1 0 .24.03.34 0l1.5.03.6-.02 1.24.02c.08 0 .15.03.24.03 0 .1 0 .38-.06.44Zm-.06.73c-.04.05-.1.04-.15.07l-.15.02h-.95c-.14-.01-.35-.07-.48-.01-.12 0-.36-.03-.45.02-.36 0-.73-.03-1.12-.03h-.3c-.08 0-.2-.03-.26 0-.37 0-.68-.04-1.05-.04v-.02h-.02c0-.08 0-.39.04-.43.05-.06.37-.03.48-.03h1.05c.21 0 .54.01.72-.06.25 0 .48.03.72.05h.64l.65.01c.2 0 .47-.06.64.02.1 0 .04.38 0 .43Zm-.13.81c-.03 0-.05.02-.07.04-.15 0-.63-.04-.73 0-.1 0-.33-.02-.4.02h-.5c-.09 0-.19-.03-.27 0-.09 0-.2 0-.27.03l-.31-.03h-.53c-.08-.01-.2-.04-.28 0l-.3-.04h-.85l-.28-.03c0-.15-.02-.34.02-.48l.14-.01h1.08c.08.01.15.04.24.03.13 0 .24-.03.37-.03.22 0 .63.05.8-.03l.25.03.48-.02.88.02c.14 0 .43 0 .55.04.09 0-.02.4-.02.46Zm-.1.65-.06.18h-.87l-.5-.03-.4.01c-.13 0-.34-.05-.45 0-.07 0-.17 0-.22.02-.2 0-.38-.03-.56-.03-.55-.03-1.07-.05-1.63-.05v-.02c-.04 0-.02-.39-.02-.46l.57-.02.33.02h1.03c.28 0 .67.07.91-.02l.52.02.26-.01.24.02c.3 0 .58 0 .88.03 0 .12 0 .23-.03.34Zm-.15.59a.69.69 0 0 1-.16.33c-.34 0-.7-.04-1.03 0l-.17.02c-.16 0-.64-.05-.74 0h-.48c-.11-.01-.27-.05-.37 0-.13 0-.3-.05-.43 0-.4-.01-.78-.06-1.18-.07 0-.12-.03-.39.02-.48 0-.04.17-.04.2-.05.07.03.15.02.23.02l.65.02.58.01.52-.02c.3.01.62.06.93.05l.59-.05c.14-.02.76-.04.83.04.04.04.02.13 0 .18Zm-.27.82a.65.65 0 0 1-.12.23c-.08 0-.18-.01-.25.01-.07 0-.17 0-.23.02l-.1.02c-.12 0-.43-.04-.52 0l-.22.01a8.13 8.13 0 0 0-.7-.02c-.1 0-.21-.02-.28.01-.12 0-.28-.03-.38.02-.17 0-1.42-.02-1.46-.08-.07-.07-.04-.4-.03-.51h.77c.22.01.45.05.69.05l1.15-.01.33-.03.22.02.2-.01c.18 0 .87-.02.94.07.04.05 0 .15-.01.2Zm-.38.98-.17.05c-.19 0-.36.02-.54.03-.07 0-.16-.03-.23 0-.07 0-.17 0-.23.02l-.1.02-.53-.03c-.1 0-.21-.03-.3 0l-.15.02h-.5c-.13-.02-.32-.08-.45-.02-.06 0-.14-.01-.19.01-.09 0-.4.02-.45-.03-.03-.04-.03-.12-.03-.18 0-.1 0-.2-.03-.27v-.02c.13 0 .26-.05.4-.05h1.28l.31-.02.66-.02c.1 0 .22.02.3-.01.19 0 .36.03.52.03l.21-.02c.14-.01.27 0 .4.03 0 .1-.1.4-.18.46Zm-.25.66c-.05.09-.08.2-.2.2-.05.01-.1 0-.14.02l-.3-.04h-.63c-.07.01-.16 0-.22.03-.15 0-.42-.05-.53.01l-.1.02h-.35c-.08 0-.17-.03-.24 0h-.88v-.02c-.03 0-.02-.16-.03-.2 0-.08 0-.22.04-.28.05-.06.58-.05.7-.09h.26c.2.01.42.04.62.03l.37-.02c.13 0 .22.03.35.03h.62c.16 0 .55-.07.68 0l.03.02c.03.05-.03.24-.05.29Zm-.4.9-.13.1-.36.01c-.14 0-.42-.07-.54 0-.11 0-.37-.04-.46 0-.11 0-.28-.02-.38.02-.12 0-.28-.04-.38 0-.31 0-.66-.02-.96.01v-.02c-.03 0-.02 0-.02-.03v-.45c.12 0 .22-.05.33-.06.2-.02.38 0 .57 0l.24-.03a87.89 87.89 0 0 1 1.72-.01c.1 0 .22 0 .31-.02.06 0 .15 0 .19.05.04.06-.1.37-.14.43Zm-.55.87c-.12.02-.28-.02-.4.02-.2 0-.63-.07-.79.02-.33 0-.66 0-.98-.03l-.48-.07-.02-.08-.01-.31h.02c0-.02.21-.05.25-.05h.37l.36-.03.58.03.45-.02c.2-.02.42.03.6-.02.14 0 .25.03.38.04 0 .14-.17.48-.33.5Zm-.09.34c-.02 0-.26.49-.43.51-.23.03-.56-.03-.8-.04l-.87-.03c-.13-.01-.31.03-.42-.04-.07-.05-.04-.25-.04-.33.01-.18.08-.14.2-.19l.32.02.29-.01c.23 0 .45.03.69.03h.72c.11 0 .24 0 .33.06.02 0 .01 0 .01.02Zm-.55.82c-.04 0-.04.04-.05.07-.04.09-.18.3-.28.34l-.16.03c-.11 0-.38-.08-.46-.05-.16 0-.37-.06-.51 0-.12 0-.5 0-.54-.09-.02-.05-.02-.12-.02-.17 0-.07 0-.16.02-.21 0-.04.08-.04.1-.05.51 0 .99.01 1.47.04l.43.04v.05Zm-.87 1.12-.24.02-.93-.02c0-.17-.04-.36.02-.51h.76l.33.04h.46c0 .14-.28.43-.4.47Zm-.62.8c-.17 0-.48.04-.59-.07-.03 0 0-.05.01-.08.03-.1-.02-.28.08-.36l.12-.04c.12 0 .69 0 .73.09.06.12-.27.4-.35.46Zm-4.68 5.02c.26-.14.5-.32.75-.48l.65-.39c.19-.14.36-.3.56-.44l.62-.45.13-.13.15-.08c.17-.13.35-.3.51-.44.14-.13.24-.26.37-.39l.43-.36.15-.17c.11-.1.23-.21.33-.33l.22-.27c.26-.24.49-.52.7-.8l.53-.62.34-.48.19-.2.56-.78.14-.28.12-.18.1-.22c.14-.22.25-.44.37-.66l.3-.5c.08-.18.13-.35.2-.53.1-.18.18-.36.26-.54.3-.77.58-1.55.8-2.35l.06-.29.2-.9.05-.46c.04-.25.1-.52.13-.77l.05-.62.04-.24.03-.52c.01-.08.04-.16.04-.25v-.37c.05-.77.07-1.62.02-2.39-.02-.4-.11-.8-.15-1.19-.05-.41-.08-.82-.16-1.22a21.56 21.56 0 0 0-.92-3.17c-.05-.14-.14-.28-.2-.42a11.55 11.55 0 0 0-.55-1.12c-.12-.25-.2-.52-.34-.77-.08-.15-.18-.28-.27-.42l-.22-.47-.85-1.27-.32-.38a78.3 78.3 0 0 1-.36-.46c-.12-.12-.25-.22-.35-.34l-.15-.23-.27-.3-.17-.15-.4-.46-.38-.35-.36-.37-.5-.38-.5-.45-.36-.22-.44-.32-.3-.25-.24-.15-.33-.22c-.35-.22-.72-.38-1.09-.57l-.4-.25-.68-.35-.58-.23-.28-.15-.22-.08-.34-.16c-.37-.13-.74-.22-1.12-.33l-.54-.18c-.38-.12-.77-.17-1.18-.27-.26-.06-.53-.13-.79-.17l-.51-.07c-.29-.06-.6-.11-.9-.15h-.34l-.24-.04h-.47c-.35-.03-.72-.06-1.08-.06-.14.04-.34.01-.5.01h-.57l-.16.03H23l-.2.06a4.2 4.2 0 0 1-.2.02c-.07 0-.14 0-.2.02l-.11.02c-.09 0-.18 0-.24.03-.19 0-.46.02-.6.1l-.13.01a.79.79 0 0 0-.36.07c-.3 0-.55.13-.83.2-.15.03-.32.05-.45.12a.73.73 0 0 0-.34.09c-.2 0-.36.1-.52.17-.1.04-.22.04-.3.1-.2 0-.37.1-.53.18l-.33.14c-.59.24-1.16.53-1.73.82l-.29.19c-.68.34-1.35.72-1.95 1.2l-.54.39-.27.25c-.18.13-.36.24-.53.38-.34.29-.66.61-.98.93l-.58.53-.2.23-.27.24c-.14.15-.24.32-.37.46-.12.12-.24.23-.35.36l-.14.2-.59.7-.36.58c-.18.22-.37.51-.5.76l-.13.24-.35.59c-.1.2-.17.42-.28.63l-.14.24c-.1.18-.19.37-.3.55l-.14.36-.17.36-.15.43-.17.45c-.3.94-.53 1.89-.74 2.89l-.05.56c-.02.22-.1.45-.11.67-.02.17-.01.36-.06.52l-.04.4c-.03.8 0 1.57.02 2.35 0 .37.08.75.11 1.12l.03.48c.05.5.13 1.01.21 1.52l.11.38c.08.4.17.77.29 1.15l.1.26.06.27.45 1.26.22.47.1.32c.12.27.29.51.42.77.1.21.23.41.34.62l.1.23.1.14.13.26c.1.17.22.34.35.5.07.1.13.21.21.31l.32.38.22.33.42.5.35.45.44.46c.12.14.22.3.36.43.2.18.4.36.57.54l.3.3c.15.14.34.23.5.38l.44.43.32.25c.13.11.25.24.4.34.16.12.33.26.5.36.13.07.25.1.37.18l.4.29.42.23c.5.32 1.02.59 1.55.84.23.11.45.26.7.34l.7.27.25.07.67.26.19.05c.2.08.38.17.59.23l.73.14c.37.08.75.19 1.12.25l.42.03c.18.02.36.07.55.08l.42.03.28.04.3.01.66.1.35.02.2-.02.66.03h.38c.25.01.5-.04.74-.07l.32-.02.45-.05c.54-.05 1.05-.11 1.57-.21l.52-.14.65-.13c.11-.03.21-.09.32-.13l.53-.16.22-.08.38-.09.78-.27.46-.22.45-.2.12-.07.47-.23.54-.3c.09-.05.19-.07.28-.12Z" fill="#1A1919"/><path d="m25.57 22.34.53-.3c.25-.13.52-.23.79-.31l.58-.18c.08-.02.18-.04.24-.09.09-.06.15-.22.02-.27-.07-.02-.15-.02-.22-.02a45.89 45.89 0 0 0-.49.2c-.2.06-.42.11-.61.2l-.55.31-.2.15c-.15.08-.36.2-.38.39h.02c0 .06.24-.06.27-.08m-3.6-.72c.58.16 1.18.32 1.71.6l.3.16c.1.05.17.15.27.17.04 0 .1 0 .12-.04.07-.13-.51-.49-.62-.54l-.5-.23a9.2 9.2 0 0 0-.17-.1l-.37-.12c-.14-.06-.28-.12-.42-.16l-.2-.04c-.22-.07-.42-.14-.67-.15-.1.1-.1.25.01.33.15.09.37.08.54.12" fill="#1A1919"/><path d="m36.79 23.19.05.5-.03.27-.01.62-.01.2c0 .14.03.28.03.4 0 .18-.05.38-.05.57l.05.7-.03.43.02.16-.02.46.02.33-.02.24a2 2 0 0 0 .02.49c.02.23.02.55 0 .79l-.04.17c0 .14.03.27.03.41l-.03.24.01.26c0 .12 0 .23-.02.35 0 .1.07.72-.03.72-.07 0-.62-.6-.71-.7l-2.06-2.08c-.11-.1-.2-.24-.3-.34l-.3-.28-.15-.18-1.99-1.95c-.12-.12-.97-.97-.98-1.03l.01-.05c.07-.16.34-.34.47-.47.15-.14.26-.3.4-.43l.37-.38.15-.12.32-.33.32-.32c.1-.1.19-.22.28-.33.11-.12.24-.2.36-.32l.45-.46.5-.49 1-1.03c.51-.49 1.03-.97 1.5-1.5.12-.13.3-.24.4-.4.08.12.02.43.03.6.02.37 0 .78 0 1.18l.03.6-.03.62.03.36-.01.17.02.21c0 .06-.02.11-.03.17-.02.32-.02.64-.02.97Zm-3.38 16c-.05 0-.12 0-.17.03a.88.88 0 0 0-.33.09c-.15 0-.29.06-.43.09l-.29.05c-.07.01-.15 0-.2.04a372413.84 372413.84 0 0 0-.25.03c-.1 0-.23-.01-.3.03l-.13.02c-.17 0-.37-.03-.5.05-.06 0-.13 0-.19.02-.08 0-.14-.02-.2-.04 0 .04-.21.07-.24.09-.12 0-.27-.02-.37.01l-.12.02c-.11 0-.25-.02-.34.03-.08 0-.16 0-.23.03-.1 0-.4.03-.46-.02-.11-.1-.05-1.18-.04-1.39l-.02-.31c0-.1.04-.48-.15-.41-.1 0-.33-.03-.41.01-.12 0-.42.02-.48-.04-.12-.11-.19-.52-.25-.68-.1-.24-.24-.48-.28-.75l.01-.1c.05-.05.28-.04.37-.04.2 0 1.12 0 1.2-.13.04-.08.03-.35.02-.46l.02-.5c0-.25-.05-.55.03-.79.58.64 1.25 1.21 1.85 1.84l.17.22.47.43c.42.41.8.86 1.21 1.27l.96.94c.05.06.15.12.18.2.03.06-.08.1-.1.12Zm-5.17.55c-.05.08-.2.1-.28.1 0-.42-.03-.88-.01-1.32 0-.13-.02-.27 0-.4l.07-.08c.09 0 .17 0 .24.04.02 0 .03.18.02.22-.01.1.01.19.01.3 0 .15-.03.28-.02.44.01.16.06.58-.03.7Zm-1.1-2.13c-.12.05-.27-.04-.33-.12-.07-.1-.09-.2-.12-.3l-.18-.5c-.04-.1-.12-.25-.1-.38 0-.08.08-.11.14-.15.05.01.08.02.11.07l.07.16.15.49c.05.18.13.38.21.55.01.03.1.16.04.18Zm-.63 2.71c-.07 0-.15.05-.2.07l-.48.22c0 .02 0 .01-.02 0a.55.55 0 0 1-.15-.33l.26-.01c.2 0 .4 0 .59.02v.03Zm-1.03.42c-.07.14-.23.24-.35.34l-.18.21c-.15.16-.3.3-.4.48h-.01l-.32-.35c-.1-.1-.32-.21-.44-.27v-.02h-.01v-.02h.01c0-.03.03-.02.05-.02l.2-.04.6-.02.02-.1.03-.26-.03-.24.01-.24c0-.17-.02-.36 0-.53l.06-.3a.7.7 0 0 1 .13-.35c.08-.1.2-.08.3-.13.04.02.08.04.1.08.03.11 0 .26 0 .39v.9c.02.06.07.13.1.19l.12.29c.02 0 .02 0 .01.01Zm-2.28-.01c-.18-.02-.34-.15-.5-.22-.13-.05-.28-.07-.4-.14v-.02c0-.03 0-.02.03-.02.25 0 1.43.05 1.54-.06.06-.05.06-.27.06-.36 0-.56-.07-1.3.44-1.59.08-.04.16-.05.24-.08.14 0 .49.06.47.25 0 .04-.06.04-.1.05-.33.04-.4.22-.54.48-.11.21-.1.58-.1.86l-.02.8h-.02c0 .04-.17 0-.2.02-.1 0-.18.03-.26.03h-.64Zm-1.17-3.07c-.15 0-.64-.03-.73.03-.04.02-.04.06-.04.1l-.01 1.38c0 .2.02.49-.02.69a.22.22 0 0 1-.07.12V40c-.14 0-.27-.06-.4-.08-.13-.02-.26 0-.38 0l-.27-.03-.54-.05a.55.55 0 0 0-.24 0c-.4 0-.79-.07-1.18-.11-.19-.02-.37-.02-.53-.05l-.44-.07-.19-.05h-.27c-.2-.05-.41-.08-.62-.12-.16-.02-.36-.02-.5-.1h-.02v-.03c.03 0 .02.01.03-.01.1-.15.27-.3.4-.42l.36-.37.57-.53.28-.27.23-.25c.47-.46.95-.9 1.42-1.37.28-.3.55-.6.84-.88.4-.39.8-.77 1.2-1.18l.33-.35c.08.1.03.5.02.64-.02.22-.02.44-.02.67 0 .15-.02.3.02.43.05.12.13.22.2.33.05.07.07.15.14.19.1.06.44.07.58.07l.75-.03c0 .17-.1.37-.16.52l-.3.79c-.04.1-.08.23-.15.3-.05.07-.12.03-.19.05l-.1.02Zm-7.31-8.2c-.25.23-.46.5-.7.74l-1.09 1.07c-.12.12-.3.25-.38.39h-.02c0 .03-.04-.07-.04-.1v-.37l.01-1.13v-1.22l.02-.9-.02-.38.02-.57-.01-.34v-.98l-.01-.3.03-.36c.01-.27-.02-.53 0-.79l.02-.6c0-.43-.02-.86-.01-1.3l.04-.61-.03-.33.01-1.3-.02-.28.03-.33c0-.13-.03-.25-.02-.38l.03-.22v-.62c.17.06.3.26.44.4l.9.86a93.53 93.53 0 0 0 .95.98l.2.24.46.42c.06.06.09.13.16.2l1.05.96.99 1.02c.2.2 1.53 1.44 1.45 1.63l-.07.1c-.16.27-.52.57-.76.79-.08.07-.13.17-.2.25l-.6.58-.8.8-.54.55-.14.16-1.35 1.27Zm8.21-13.09c-.16.05-.13-.28-.12-.39.12.05.37.33.12.4Zm-4.58-3.87c.17 0 .38.03.53-.01.13.02.27.01.4.02l.3.01h.44l.19.04c.13 0 .28-.1.41-.05.15.05.28.23.4.34l.55.55.37.41c.15.16.32.28.47.44.1.1.15.2.24.3l.16.12c.1.08.19.19.24.3-.05 0-.13.12-.17.16a1 1 0 0 0-.3.5l-.04.23c-.02.13-.06.25-.04.4l.07.27.11.29c.05.1.08.21.15.3.05.08.14.1.2.16.08.04.1.13.17.18l.2.09.26.17c.12.08.26.13.36.23l.2.28c.07.07.17.12.21.21a.6.6 0 0 1 .06.22c0 .07-.02.14 0 .2.03.16.1.38.07.54-.14 0-.43-.35-.53-.45l-.64-.6-.47-.5c-.3-.32-.64-.61-.94-.93l-.5-.5-.2-.25-1.68-1.64-.44-.48c-.32-.33-.62-.65-.96-.96-.16-.15-.51-.36-.57-.58h.72Zm3.29.05c.13.02.2.06.3.15.13.14.25.3.36.45l.15.24.26.28.23.28.08.13.16.14c.12.11.22.25.28.4-.02 0-.02.02-.03.04a.5.5 0 0 1-.27-.08l-.34-.34c-.07-.07-.15-.1-.21-.18-.12-.16-.2-.35-.35-.5-.09-.08-.2-.1-.3-.17v-.01c-.09-.1-.12-.22-.2-.32-.09-.11-.21-.2-.3-.3v-.03c-.02-.1.11-.15.18-.18Zm.67.18v-.02c.04-.11.31-.11.41-.17.1 0 .23-.02.32.02.24.13.32.48.42.7l.22.44.14.23a.8.8 0 0 1 .04.25c0 .07.01.19-.05.22-.05.03-.12.01-.17 0a16.18 16.18 0 0 1-1.33-1.66v-.01Zm1.4-.15c.06-.06.3-.02.4-.05.11.04.39.03.52.04l.01.23.04.17-.03.18c0 .28-.04.55-.06.81l.03.5h-.02v-.01c-.22 0-.47-.67-.55-.83-.05-.08-.13-.14-.19-.22-.12-.17-.35-.62-.16-.82Zm1.55 3.2c-.03.12-.14.19-.23.27-.1.1-.2.2-.33.21-.13.02-.32-.56-.3-.66.02-.04.22-.25.27-.28v-.01l.18.02c.1.03.45.3.41.44Zm-.2-1.99c.01-.09.06-.15.06-.25 0-.13-.08-.25-.05-.38.02-.08.1-.14.13-.23.03-.1 0-.18.06-.26.07-.08.52-.02.66-.1l.28.01v.03c-.03 0-.03.02-.04.03-.14.2-.2.41-.3.62l-.13.23-.1.25c-.1.16-.32.45-.51.49v-.02c-.03 0-.02-.16-.02-.2-.02-.07-.05-.13-.04-.22Zm1.32-.39c.03-.08.02-.18.07-.26.05-.1.19-.13.27-.2.07-.08.09-.17.14-.24.07-.08.15-.1.23-.13h.2c0 .08-.1.17-.15.24-.05.1-.1.2-.17.28-.06.1-.13.18-.2.27-.04.07-.06.15-.12.22l-.12.1-.12.12-.11.11c-.07.09-.07.2-.16.28-.09.07-.24.11-.35.07h-.03c0-.05.22-.4.28-.44.04-.04.11-.05.15-.1.03-.05.03-.11.06-.17.03-.06.1-.08.13-.15Zm1.17-.41c.07-.08.1-.17.17-.26l.16-.16.38.04v.05c-.18 0-.67.6-.78.76-.06.07-.12.21-.2.26-.05.02-.11 0-.15-.02-.12-.08-.03-.2 0-.29.02-.05.03-.12.07-.15l.14-.07.2-.16Zm-1.3 4.13v.02c0 .08-.23.22-.3.15-.1-.1.02-.2.08-.26.1.01.16.02.21.1Zm.2-1c-.04.04-.08.08-.14.07-.06 0-.08-.03-.1-.08v-.65c.03-.06.12-.11.16-.16.13.04.12.12.17.24.08.2.14.42-.09.59Zm.33.23c0 .12-.07.26-.18.3 0 .04-.06 0-.08-.01 0-.12.16-.21.24-.3h.02Zm-.13-1.93v.02h-.05v-.17c.02-.17.16-.25.26-.38.18.16-.1.42-.2.53Zm1.73 5.95.06.3c.02.3 0 .63.01.95l.02.4c0 .42-.03.86-.03 1.3l.03.3v.72c0 .13-.02.26-.03.38l-.01.64-.03.27.01.56-.03.44c0 .26.05.56 0 .83l-.27-.07c-.18-.05-.6-.13-.8-.04l-.1.02-.11.01c-.1 0-.31.04-.38.09-.25 0-.35.07-.55.17l-.49.22c-.17.1-.34.25-.53.32 0 .04-.06-.04-.07-.05-.16-.34-.15-.89-.15-1.31 0-.16-.03-.3-.03-.45l.02-.15-.02-.26c0-.32.02-.64 0-.95 0-.31-.02-.65 0-.98 0-.21 0-.45.02-.67 0-.1.02-.18.03-.27v-.7l.04-.5c.01-.31 0-.63.05-.92.02-.13.02-.24.1-.34.1-.12.25-.2.39-.27.55-.3 1.14-.39 1.78-.5.14-.03.3-.02.43-.06.12 0 .23.02.34.03.1 0 .2-.02.28.02.05 0 .04.12.04.16-.01.12-.03.24-.02.36Zm-2.87-2.8c-.03.12-.31.17-.41.1-.15-.08.13-.26.2-.31.06.02.22.1.2.2Zm.22-2.14c-.06.04-.13.13-.2.12-.1-.01-.15-.15-.22-.21-.08-.08-.24-.11-.21-.25 0-.06.05-.09.1-.1v-.02c.12.02.2.08.3.12.12.05.24.08.37.12.02.01.03.04.02.07-.02.08-.1.11-.16.15Zm-.24.7.14.02c.15.06.28.28.23.44-.03.08-.13.15-.2.2-.05.05-.12.1-.2.1-.1-.01-.05-.22-.03-.28.04-.08.13-.1.13-.2.01-.11-.07-.16-.07-.27Zm-2.2.42.09.03c.08.05.38.34.4.43 0 .1-.25.27-.33.3-.07 0-.1-.06-.11-.11-.08-.2-.14-.42-.06-.65Zm.26-1.42v-.05l.1-.03c.22-.03.36-.06.54-.16.05.02.14.02.18.07.1.15-.36.46-.5.45-.14-.02-.22-.2-.32-.28Zm-.4.32s.13-.15.17-.17v-.02c.22.14.4.4.17.63-.04.04-.11.1-.17.11-.2.03-.12-.22-.12-.32 0-.08-.03-.16-.05-.23Zm1.2 2.2h-.02c0 .02-.07 0-.09 0-.26-.05-.54-.12-.32-.44.04 0 .07 0 .1.03.07.05.08.12.13.17.06.09.16.13.2.23Zm-.08-.95c-.07.06-.16.16-.25.17-.07 0-.1-.05-.15-.09a.52.52 0 0 1-.16-.46l.08-.15c.05-.14.03-.16.13-.27.15.07.58.39.53.59-.01.08-.12.16-.18.21Zm.2.3c-.01-.08-.02-.16 0-.22s.08-.08.12-.12c.06 0 .1.01.14.04.05.03.4.36.4.4.03.13-.27.33-.37.35-.05.01-.08-.03-.11-.05-.04-.03-.09-.04-.12-.08-.09-.1-.06-.2-.07-.33Zm-3.58 8.3.04-.45.02-1.08c0-.18-.06-.33-.06-.5l.05-.7v-.85l.03-1.4c0-.13-.02-.44.03-.52.05-.08.19-.07.27-.1h.83c.2.01.4.05.58.1l.36.06.31.1c.4.16.77.29 1.03.65.15.2.11.46.14.72.06.75.01 1.56 0 2.32-.01.49 0 .97-.03 1.46l.02.52c0 .4-.03.8-.04 1.2-.01.28-.02.54-.05.8-.04.22-.03.4-.13.58v.02c-.04 0-.47-.33-.54-.38a3.3 3.3 0 0 0-.82-.31c-.2-.04-.4-.04-.62-.07-.16-.03-.61-.12-.77-.05l-.13.02c-.05 0-.12 0-.17.03a.38.38 0 0 0-.17.03h-.19c0-.16.03-.3.03-.46 0-.13-.04-.25-.04-.4l.03-.44v-.9Zm-1.03 1.18.03-.48c0-.18-.02-.35-.03-.53 0-.3.03-.58.04-.86l-.03-.52.02-.4-.03-.4c0-.2.06-.4.07-.61l-.03-.36.01-.2c.01-.27.04-.5.04-.76 0-.18-.03-.45.02-.6.05-.16.52-.7.68-.76v-.02c.03.14.01.31 0 .45-.02.16-.03.34-.02.52l.03.34v.65l-.02.3.01.34c0 .3-.02.65-.01.97 0 .33-.04.7-.03 1.03l.03.38v.77l-.03.36v.6c0 .24.03.67-.04.88-.02.06-.1.1-.13.16l-.17.23-.17.16-.17.32h-.02v.02h-.01c0-.32-.05-.67-.05-1 0-.2.02-.4.04-.58 0-.14-.04-.27-.03-.4Zm7.92 2.18c-.13 0-.31-.03-.42.03-.12 0-.28-.07-.4-.02l-.11.02c-.14 0-.3-.02-.42.03a.4.4 0 0 0-.17.04c-.11 0-.36-.03-.45 0l-.15.02-.16.02c-.08 0-.19.01-.24.07-.03 0 0 .09 0 .12 0 .3-.22.58-.54.58a.52.52 0 0 1-.5-.42c-.01-.08 0-.19-.04-.25a.1.1 0 0 0-.1-.04l-.37-.02-.08.02c-.29 0-.54-.04-.83-.04-.07 0-.18-.01-.24.02l-.62-.02c-.1 0-.23-.01-.3.03-.31 0-.62-.03-.92-.02-.1 0-.26-.03-.34.01-.1 0-.19 0-.26-.03 0-.07.04-.14.06-.2a.9.9 0 0 1 .32-.4c.1-.08.17-.18.27-.24.44-.3 1.13-.29 1.67-.18l.32.1c.35.06.66.1.95.27.2.11.35.27.53.42l.14.09c.08.06.17.19.28.19.16 0 .26-.21.38-.3.14-.1.27-.2.42-.27.4-.2.8-.4 1.26-.51l.48-.11c.09-.02.2-.01.27-.04h.41c.23.04.47.15.65.29l.23.26c.13.14.27.28.29.47h-.02c0 .03-.14.02-.17.02l-1.08-.01Zm-5.34 5.56c-.1.04-.24.02-.36.02 0-.16.63-.61.76-.74h.26c0 .13-.54.67-.66.72Zm2.62.05c0-.05.37-.6.43-.66a.28.28 0 0 1 .1-.08v-.01h.27c0 .1-.41.7-.52.75-.07.03-.17.02-.26.02v-.02h-.02Zm1.5-.78c.08.12.57.67.54.77 0 .02-.04.03-.06.03H25.8v-.02h-.02c0-.05.05-.1.07-.15.09-.15.41-.6.39-.75 0-.06-.05-.1-.1-.11-.2-.07-.45-.01-.68-.02-.12 0-.4-.07-.5-.02-.22 0-1-.11-1.1.09-.02.04 0 .1.03.14.09.18.23.35.35.52l.2.3v.02l-.05.01-1.45-.02v-.04c.02 0 .7-.83.78-.92 0-.03 0-.03-.02-.04a24.6 24.6 0 0 1-.25-.03l-.43-.02c-.41-.01-.85.01-1.24-.03 0-.04.59-.6.66-.7.5-.52 1.02-1.02 1.54-1.53l.54-.55c.06-.06.11-.12.18-.14v-.04c.12.06.22.18.32.28l.46.48.3.27c.44.46.91.9 1.36 1.35.19.2.43.38.58.6l-.1.02h-.44c-.05 0-.12-.03-.17 0-.2 0-.43-.03-.58.04 0 .07.08.16.12.21Zm1.75 2.2v.03h-.02c0-.03-.1-.02-.14-.02l-.8.01c-.13 0-.3-.02-.4.02-.1 0-.24-.02-.33.01-.32 0-.62 0-.93-.02-.14-.01-.33-.08-.47-.02-.23 0-.45-.02-.68-.01-.05 0-.12-.02-.16 0-.13 0-.42-.05-.52 0-.07 0-.16 0-.22.02h-.65c-.13-.02-.28-.02-.42-.03h-.13l-.16.02c-.25 0-.46.06-.58-.16-.01-.02-.03-.07-.02-.1.07-.11 1.4-.01 1.62 0 .34 0 .65-.06.98-.05l1.38.03.72-.01c.54-.02 1.1.01 1.63.01v-.01c.03 0 .04-.16.04-.2v-1.06c0-.25 0-.5.04-.72.28.14.25.5.26.8 0 .2.02.42.01.63l-.03.32c-.01.17.04.35-.02.5Zm1.21-11.7c0 .11-.03.2-.03.3l.03.21v.52l-.04.67c0 .21.04.4.03.62 0 .15-.05.27-.05.41l.06.4c.02.2-.01.43-.02.62 0 .18.02.37-.05.52h-.07l.02-.14a6.2 6.2 0 0 1-.05-.76v-1.01l.02-.24c0-.2-.06-.4-.06-.6 0-.08.02-.14.03-.21.02-.22.03-.48 0-.7a.3.3 0 0 0-.11-.18h-.02c0 .03-.05.05-.06.09-.03.09-.03.2-.03.3 0 .2 0 .4.02.59.02.1.06.23.06.36l-.04.28-.04.4.02.42-.03.9c-.08 0-.1-.13-.11-.18-.03-.1 0-.2-.02-.29-.02-.18 0-.38 0-.57v-.51c.01-.22.05-.43.02-.64-.01-.06-.03-.16-.1-.18-.03 0-.05 0-.06.03-.06.17-.02.38-.02.56.01.28-.02.56-.03.83-.01.16 0 .33-.04.48h-.02v.01h-.02v-.01c-.04 0-.04-.09-.04-.12-.02-.26 0-.53.01-.78v-.77c0-.18.02-.36.04-.53v-.6c.02-1.01-.03-1.98.06-2.96l-.03-.49.01-.45c.01-.11.01-.21.06-.3.05.12.03.26.03.4 0 .28-.02.57.07.8h.05l.03-.15c.02-.3.05-.56.06-.85h.02v-.01h.05l.03.1.02.2-.03 1.24.02.23c0 .11-.05.2-.02.32.01.08.07.1.16.1l.01-.2v-.2c.01-.12.07-.23.08-.36 0-.36-.01-.73.02-1.07h.05v.02c.03 0 .02.15.02.18l.02.26c.01.16.04.32.04.49l-.02.84-.02.83.01.53Zm-1.2-10.73c.06-.04.12-.06.17-.11l.1-.16.3-.37.12-.1c.08-.05.2-.03.3-.03.2 0 .4 0 .57-.02.09-.01.17 0 .24-.04h.4c.15.02.3.06.46.06.14 0 .26-.05.4-.05l.14.03c.16.02.37.02.51-.03v.02h.02c0 .02 0 .01-.02.01v.03c-.17.22-.42.4-.61.58l-1.1 1.08-.27.24c-.33.34-.63.7-.97 1.03l-.36.35-.2.18-.24.27c-.2.22-.42.43-.64.63l-.3.36-.69.67-1.16 1.14c-.13.13-.24.28-.38.37v.02h-.02v-.02h-.02l.02-.15c0-.12-.02-.24 0-.36 0-.07.02-.13.04-.2 0-.11-.04-.2.02-.31.03-.06.11-.09.16-.14.1-.1.16-.22.28-.3.12-.09.28-.11.42-.18.08-.04.15-.11.23-.16.19-.12.4-.23.54-.42l.1-.22.15-.2c.03-.09.03-.19.05-.28.04-.13.1-.25.1-.4 0-.13-.02-.27-.04-.4a.91.91 0 0 0-.21-.45c-.05-.05-.1-.1-.13-.17-.03 0 0-.04.01-.06l.08-.12c.12-.18.25-.37.42-.5.09-.07.1-.16.17-.24.08-.1.2-.15.29-.25l.13-.17c.03-.07.05-.14.1-.2.06-.06.12-.08.18-.13l.14-.13Zm8.79 8.02c0-.24 0-.5-.02-.74l-.03-.24c0-.2.04-.37.03-.55l-.02-.43c0-1.11-.04-2.18 0-3.28l.02-1.8-.02-1v-.95h-.01c0-.03-.17 0-.2 0h-.95a4.49 4.49 0 0 0-.64-.04c-.06 0-.14 0-.2.02l-.23.02a19.3 19.3 0 0 1-.35-.04l-1.2-.01c-.11 0-.4-.04-.48 0l-.62-.01c-.16-.01-.38-.08-.54-.02l-.13.02h-.45c-.22-.02-.44-.06-.67-.06-.17.05-.42-.03-.59.03l-.13.02h-.54c-.08 0-.2-.02-.27.01-.06 0-.13 0-.18.02-.14 0-.27-.03-.4-.04H27.2c-.13 0-.32-.03-.42.01l-.13.02-.15.01c-.2 0-.53-.1-.7-.03l-.1.01a.5.5 0 0 0-.23.04l-1.52-.02h-.4c-.06 0-.15-.02-.2 0h-.38c-.17-.01-.56-.08-.72-.02h-.35c-.07-.01-.16-.03-.24 0-.1 0-.24-.02-.32.01-.21 0-.39-.03-.6-.04-.07 0-.16 0-.21.02-.13 0-.3-.03-.41.02h-.6c-.08 0-.2-.03-.28 0l-.74.01c-.16-.01-.46-.07-.6-.01-.16 0-.43-.05-.56 0-.32 0-.62-.02-.94-.05-.12 0-.3-.04-.4 0-.06 0-.13 0-.19.02-.12 0-.29-.03-.4.02-.1 0-.27-.03-.36.01l-1.27-.02c-.13 0-.3-.03-.41.01-.16 0-.5-.03-.62.02-.1 0-.25-.03-.31.03-.1.09-.04.54-.04.69l-.02.34c0 .1.02.21.01.33v.48l-.02 1.3c0 .13-.03.22-.04.33 0 .12.03.24.02.35 0 .1-.02.22-.04.32l.02.7c-.01.38-.03.8-.03 1.21l.02.49.02.15-.04.3-.02 2.08c0 .3.02.59.01.89l-.03.45.01.67c0 .44-.02.9-.01 1.36l.02.48-.03.62c-.01.81 0 1.66.01 2.48 0 .2-.03.37-.03.58v.95c0 .74-.03 1.45-.04 2.2 0 .34-.04.64-.04.96v.43l.03.18-.03.17-.02.5.01.63c0 .1.03.18.03.28 0 .1-.03.18-.03.27 0 .12.03.2.03.33 0 .9 0 1.75.4 2.43.29.46.8.75 1.26.95.32.14.66.3 1 .38.26.06.52.1.8.14.2.04.41.09.63.11l.62.05c.44.05.87.13 1.32.19.22 0 .43.02.64.03l.27.06h.5l.54.06h.27l.24.07.67.1.21.07c.16.05.3.08.45.14l.65.24.47.23.26.17c.17.1.34.19.5.32.2.15.32.35.5.53.05.06.08.14.15.19 0 .02.01.01.04.01 0-.03.09-.08.1-.1l.12-.18a4 4 0 0 1 1.5-1.24l.26-.1.32-.13c.2-.06.43-.1.65-.15.41-.09.81-.2 1.23-.28l.3-.02c.16-.03.32-.07.49-.09l.65-.02c.26-.02.53-.08.8-.1.23-.01.47-.02.7-.05l.62-.1.2-.02c.33-.05.63-.13.94-.2l.3-.06c.3-.09.58-.2.87-.3.24-.07.47-.15.7-.25.2-.09.36-.21.54-.33.33-.2.68-.42.88-.76.1-.16.18-.38.2-.56l.02-.26c.07-.37.06-.78.05-1.17l.02-.41-.01-.22v-.45l-.03-.17.02-.16-.02-.15c0-.1.03-.19.03-.3l-.03-.3c0-.14.03-.23.04-.37 0-.45 0-.9.02-1.34l-.01-.32v-1.2c.02-1.07.01-2.22.04-3.3l-.02-.34-.02-.1c0-.09.03-.18.02-.28l-.02-.19.03-.27c0-.2-.05-.37-.05-.57 0-.14.02-.26.03-.38v-.19l.02-.19-.03-.22.03-.26c0-.08-.03-.14-.03-.22l.01-1.41c0-.11.03-.2.04-.3 0-.1-.03-.18-.03-.27l.03-.16.02-.46Z" fill="#1A1919"/><path d="M28.9 21.7c-.07.1-.05.21.08.24v-.02c.07 0 0-.19-.08-.22m.07 1.08a.2.2 0 0 0-.11-.12c-.07.14-.05.32-.05.5v1.15c0 .06 0 .14.02.2 0 .09.1-.06.11-.07.1-.25.03-.75.04-1.04 0-.2.04-.42-.01-.62m.27.24c-.1.18-.06.38-.06.59 0 .16-.02.3.03.43h.04c.15 0 .16-.82.1-.94-.02-.05-.06-.06-.11-.08m-4.04 1.51c.1 0 .17-.08.25-.12.22-.13.45-.25.68-.34.13-.06.26-.08.4-.13l.59-.2c.17-.05.35-.07.5-.17a.26.26 0 0 0 .13-.23c0-.11-.08-.15-.18-.17v.02a.62.62 0 0 0-.3.12c-.19 0-.37.11-.53.18-.5.2-1.05.4-1.46.78-.05.04-.23.16-.15.24.02.02.04.02.07.02m-1.59-.49a4.87 4.87 0 0 0-2.03-.75v.02c-.17 0-.26.27-.13.37.1.09.33.06.47.06l.3.04c.28.04.5.14.75.24l.53.21c.15.07.63.47.75.45h.02l.03-.02c.04 0 0-.07 0-.1-.1-.17-.52-.43-.69-.52m3.86 1.25c-.29.1-.58.16-.86.27l-.22.12c-.22.09-.43.2-.63.33-.19.12-.36.22-.54.36-.04.04-.14.12-.1.19.05.1.2-.04.25-.07.44-.27.86-.47 1.37-.59.15-.03.3-.08.45-.1.17-.05.35-.04.5-.13.11-.07.15-.28.01-.35-.07-.03-.15-.03-.23-.03" fill="#1A1919"/><g transform="translate(0 17.9)"><mask id="b" fill="#fff"><use xlink:href="#a"/></mask><path d="M24.18 8.66a1.7 1.7 0 0 0-.52-.4 7.11 7.11 0 0 0-1.39-.52c-.12-.03-.25-.04-.38-.06-.12-.03-.22-.07-.36-.07v.02c-.22 0-.22.3-.07.39l.07.02c.19.04.39.05.58.08l.52.11.34.07c.31.1.63.21.92.35.12.06.26.18.4.17 0-.08-.07-.11-.11-.16M3.45 2.08c.44.1.58.05.65-.27l.1.03-.28 1.29-.1-.03c.05-.26 0-.43-.5-.54L.57 1.94l-.12.53c-.11.49-.02.74.35.86l-.02.1-.83-.18.02-.11c.06-.04.1-.1.14-.17.04-.08.08-.2.12-.35L.64.72C.71.4.71.25.64.12L.66 0l.83.19-.01.07C1.16.26.92.33.78.9l-.12.55 2.8.62" fill="#1A1919" mask="url(#b)"/></g><path d="m3.65 15.84.97.48c.4.2.58.16.72-.13l.1.05-.59 1.21-.1-.05c.13-.26.1-.42-.35-.64l-2.08-1.01c-.4-.2-.57-.18-.72.11l-.1-.04.6-1.21.1.04c-.14.27-.1.44.33.65l.96.47.89-1.83-.96-.46c-.4-.2-.57-.17-.71.11l-.1-.05.59-1.2.1.05c-.15.29-.06.45.34.64l2.09 1.02c.4.2.57.17.71-.12l.1.05-.58 1.2-.1-.05c.13-.27.1-.42-.35-.64l-.97-.47-.89 1.82m4.4-6.12-.07.09c-.29-.15-.36-.13-.6.17l-.6.7 1.03.86c.14.12.24.11.37-.05l.41-.5c.35-.42.42-.54.19-1.02l.07-.09.42.58-1.71 2.06-.09-.07c.19-.22.2-.38-.18-.7l-1.78-1.49c-.36-.3-.53-.3-.73-.05l-.09-.07 1.72-2.07.48.4-.04.06c-.37-.2-.48-.12-.74.2l-.69.82 1.23 1.02.66-.8c.16-.2.2-.3-.02-.54l.07-.09.7.58m6.97-4.2c-.1.54-.35.9-.78 1.15-.79.44-1.42.06-1.73-.5l-.9-1.6c-.24-.43-.4-.45-.66-.3l-.06-.1 1.18-.66.05.1c-.26.15-.32.3-.08.72l.92 1.64c.28.5.76.7 1.3.39.38-.21.6-.59.64-1.06l-1.1-1.96c-.22-.37-.37-.45-.64-.32l-.06-.1 1.15-.64.05.1c-.27.15-.3.33-.07.72l1.13 2.02c.24.43.41.45.66.31l.06.1-.8.45-.26-.46m5.91-1.47-.1.03-3.35-2.49h-.02l.65 2.54c.1.36.27.46.6.37l.03.11-1.1.28-.03-.1c.3-.08.43-.21.3-.74l-.55-2.1c-.1-.4-.27-.6-.7-.54l-.03-.1.92-.24 2.98 2.23h.01l-.54-2.11c-.12-.47-.28-.56-.6-.48L19.4.6l1.1-.29.02.1c-.35.1-.43.27-.32.7l.75 2.93m3.03-.98c.02.45.14.58.45.57v.1l-1.33.07-.01-.1c.3-.02.42-.14.4-.62L23.36.76c-.03-.46-.14-.58-.45-.57L22.9.1l1.34-.07v.1c-.3.02-.41.17-.39.62l.12 2.32m3.77.93-.1-.02-.75-3.15c-.11-.48-.18-.66-.52-.72l.01-.11 1.34.18-.01.1c-.27-.03-.42.1-.34.4l.58 2.5L29.12 1c.15-.3.12-.5-.21-.55l.01-.11L30 .48l-.02.12c-.27-.04-.51.14-.76.62L27.74 4m5.87.06-.1-.04c.04-.32 0-.38-.36-.51l-.87-.32-.46 1.25c-.06.18-.02.27.17.34l.61.22c.51.19.65.21 1.02-.17l.11.04-.4.6-2.52-.93.04-.1c.27.1.43.06.6-.4l.8-2.2c.15-.43.1-.59-.2-.7l.04-.1 2.52.92-.21.59-.07-.02c.06-.42-.05-.5-.44-.63l-1-.37-.55 1.5.98.35c.24.09.34.08.5-.2l.1.03-.3.85m3.2 1.31.25.16c.57.37.25 1.21.37 2.3l.63.42.07-.1c-.5-.37-.02-1.52-.35-2.28.55.16.92 0 1.14-.34.28-.42.2-1.04-.5-1.5l-1.27-.84-.06.1c.25.16.3.3.03.7l-1.28 1.96c-.28.41-.44.41-.68.26l-.06.09 1.12.74.06-.1c-.25-.16-.28-.34-.03-.72l.56-.85Zm1.03-1.56.32.22c.48.31.6.8.32 1.22-.23.36-.67.58-1.2.23l-.38-.24.94-1.43Zm4.91 4.93-.08-.08c.35-.43.23-.86-.03-1.12-.28-.28-.63-.33-.87-.09-.5.48.04 1.29.04 2.04 0 .37-.13.58-.3.75-.42.41-1.09.4-1.5 0-.28-.29-.37-.66-.46-.75-.04-.05-.1-.05-.2 0l-.08-.08.72-.7.08.07a.9.9 0 0 0-.03 1.28c.32.32.71.35 1 .07.46-.45-.03-1.38-.03-1.96 0-.33.13-.57.34-.78.4-.4.97-.38 1.4.05.27.28.3.52.4.62.04.04.06.04.15 0l.07.07-.62.61m.31 3.99c-.37.25-.42.42-.24.68l-.1.06-.76-1.1.1-.06c.17.25.33.28.72 0L44.7 11c.4-.27.44-.42.26-.69l.09-.06.76 1.1-.1.06c-.17-.25-.35-.26-.72 0l-1.9 1.32m1.84 3.37c-.41.2-.49.32-.36.61l-.1.05-.55-1.2.1-.05c.12.24.25.35.72.14l2.58-1.19-.22-.49c-.21-.45-.44-.6-.8-.46l-.05-.1.78-.36.04.1a.48.48 0 0 0-.01.23c.02.08.05.2.12.34l.81 1.77c.14.3.23.41.37.48l.05.1-.77.36-.03-.06c.25-.2.4-.4.15-.94l-.23-.52-2.6 1.2m1.47 4.52c-.44.1-.56.22-.5.53l-.1.02-.29-1.33.1-.02c.07.28.16.43.68.32l1.15-.24 1.04-1.04c.35-.34.4-.46.36-.75l.1-.03.3 1.43-.1.02c-.09-.4-.24-.41-.43-.22l-.95.96 1.04.38c.33.11.6.07.53-.24l.1-.02.22 1-.1.02c-.08-.27-.18-.35-.54-.49l-1.47-.54-1.14.24m-44.34 8.9a1.95 1.95 0 0 0-1.34 2.45 1.96 1.96 0 0 0 2.44 1.37 1.94 1.94 0 0 0 1.31-2.44 1.92 1.92 0 0 0-2.4-1.38Zm.15.55c1.04-.3 1.89.04 2.13.89.21.73-.25 1.51-1.37 1.84-.87.25-1.86.03-2.12-.87-.23-.81.32-1.56 1.36-1.86Zm1.33 6.68c-.4.23-.45.4-.3.66l-.1.06-.66-1.17.1-.05c.15.27.32.3.72.07l2.02-1.15c.4-.23.45-.39.3-.66l.1-.05 1.26 2.22-.57.33-.05-.08c.35-.3.32-.41.12-.76l-.47-.82-1.35.77.48.84c.14.24.31.26.59.14l.05.1-.91.51-.05-.1c.22-.13.3-.32.16-.55l-.48-.85-.96.54m7.15 7.19-.09-.08c.14-.29.12-.36-.17-.6l-.72-.59-.84 1.03c-.12.14-.11.24.05.37l.5.42c.42.34.55.4 1.03.17l.08.07-.57.43-2.08-1.7.07-.09c.23.19.39.2.7-.18l1.48-1.8c.29-.36.3-.52.05-.72l.07-.1 2.07 1.71-.4.48-.05-.04c.2-.37.12-.48-.2-.74l-.83-.68-1.01 1.23.8.66c.2.16.3.2.54-.02l.1.07-.58.7m2.59 2.53c-.2.41-.36.48-.63.36l-.05.1 1.6.73c1.34.62 2.23.08 2.63-.77.4-.88.19-2.03-1.1-2.63l-1.57-.72-.05.1c.29.13.33.3.14.72l-.97 2.1Zm1.65-2.41.65.3c1.06.49 1.1 1.49.72 2.3-.42.92-1.19 1.26-2.03.88l-.35-.16c-.3-.15-.38-.3-.14-.83l1.15-2.5Z" fill="#1A1919"/><g transform="translate(18.79 45.67)"><mask id="d" fill="#fff"><use xlink:href="#c"/></mask><path d="M1.05 3.15c-.1.45-.02.6.28.67l-.02.1L0 3.65l.02-.1c.3.06.44-.03.54-.5l.5-2.26C1.16.32 1.1.18.78.1L.8 0l1.3.29-.01.1c-.3-.06-.45.06-.54.5l-.5 2.26m6.73 1.2h-.1L5 1.15l.03 2.6c0 .38.15.52.49.51v.12H4.4v-.1c.31 0 .46-.1.45-.64l-.02-2.18c0-.42-.12-.65-.56-.68V.67L5.2.66l2.36 2.87h.02l-.03-2.18c0-.49-.14-.6-.46-.6V.62h1.12v.1c-.36 0-.47.16-.47.6l.03 3.02" fill="#1A1919" mask="url(#d)"/></g><path d="m30.5 47.5.34-.1c.64-.17 1.14.07 1.28.6.15.52-.13.86-.5.97l-.29.08c-.28.07-.4-.02-.54-.5l-.29-1.06Zm-.16 1.24c.12.44.05.6-.26.68l.03.1 1.66-.45c.68-.18 1.06-.65.91-1.2-.13-.47-.62-.78-1.2-.75.44-.3.6-.63.49-1.02-.13-.46-.63-.77-1.49-.54l-1.35.38.03.1c.3-.08.43 0 .56.46l.62 2.24Zm.13-1.38-.42-1.53.36-.1c.58-.16.94.09 1.07.54.12.45-.12.84-.64.98l-.37.1Zm7.57-1.66c-.1.53-.34.9-.76 1.14-.78.46-1.42.1-1.74-.46l-.93-1.58c-.25-.43-.4-.45-.66-.3l-.06-.1 1.17-.68.05.1c-.26.15-.31.31-.07.72l.95 1.63c.28.5.77.69 1.31.37.37-.22.59-.6.61-1.07l-1.13-1.94c-.22-.37-.38-.45-.64-.31l-.06-.1 1.14-.66.05.1c-.27.15-.29.33-.06.72l1.17 2c.24.43.41.45.66.3l.06.1-.8.46-.26-.45m2.83-3.74.21-.21c.48-.49 1.24-.01 2.33.09l.53-.55-.07-.07c-.47.4-1.51-.3-2.32-.11.27-.5.18-.9-.11-1.2-.35-.34-.98-.39-1.57.2l-1.07 1.1.08.07c.2-.21.36-.23.7.1l1.67 1.65c.36.35.32.51.12.71l.08.08.94-.95-.08-.08c-.21.22-.4.2-.71-.11l-.73-.72Zm-1.33-1.3.28-.28c.4-.41.91-.43 1.26-.08.3.3.44.78 0 1.22l-.32.33-1.22-1.2Zm7.45-3.89c-.06.21-.38.8-.47.94-.85 1.4-1.98 1.35-2.7.9a1.97 1.97 0 0 1-.77-2.7c.27-.46.53-.54.68-.78.06-.1.06-.16 0-.24l.06-.1.94.57-.06.09c-.65-.29-1.24.1-1.5.53-.4.65-.13 1.5.74 2.03.94.57 1.96.43 2.42-.33.14-.22.27-.56-.01-.73l-.34-.21c-.4-.24-.59-.24-.74.02l-.08.13-.1-.06.8-1.29.09.06c-.2.3-.1.48.18.65l.86.52m-.11-4.3 1.04.3c.43.13.6.06.69-.25l.1.04-.37 1.29-.1-.03c.07-.28.02-.44-.46-.57l-2.23-.65c-.42-.12-.59-.07-.68.25l-.1-.04.37-1.29.1.03c-.08.28 0 .45.45.58l1.02.3.56-1.96-1.02-.29c-.44-.13-.6-.07-.68.24l-.1-.03.36-1.28.1.03c-.08.3.04.44.46.57l2.23.64c.42.12.6.06.69-.24l.1.03-.37 1.28-.1-.03c.08-.28.02-.43-.46-.57l-1.03-.3-.57 1.95m-45-7.09c0 .18-.15.33-.33.33a.33.33 0 1 1 0-.66c.19 0 .33.15.33.33m46.57.01c0 .18-.15.32-.33.32a.33.33 0 1 1 .33-.32" fill="#1A1919"/><path d="M69.83 11.23h-1.8v9.08c0 .7.1 1.19.27 1.44s.51.37 1.02.37v.34h-4.18v-.34c.52 0 .87-.14 1.06-.43.18-.28.28-.77.28-1.44v-9.02h-1.71c-.82 0-1.42.13-1.79.4-.37.26-.58.69-.63 1.3H62v-2.71h.35c.32.29.9.44 1.77.44h6.19c.9 0 1.52-.15 1.87-.44h.38v2.7h-.24c-.14-.65-.4-1.1-.79-1.33a3.26 3.26 0 0 0-1.7-.36m13.5 9.01v-3.42H76.9v3.42c0 .7.1 1.2.3 1.47.19.27.55.4 1.06.4v.35H74v-.34c.51 0 .87-.14 1.06-.42.18-.28.28-.76.28-1.45v-7.37c0-.72-.1-1.22-.3-1.48-.18-.27-.53-.4-1.04-.4v-.34h4.26V11c-.51 0-.87.14-1.07.43-.2.28-.3.77-.3 1.45v3.36h6.44v-3.36c0-.72-.1-1.22-.28-1.48-.19-.27-.53-.4-1.04-.4v-.34h4.22V11c-.5 0-.85.14-1.04.41-.2.28-.3.77-.3 1.47v7.37c0 .7.1 1.19.3 1.46.2.27.54.4 1.04.4v.35h-4.22v-.34c.52 0 .87-.14 1.05-.4.18-.28.27-.77.27-1.48m12.12-5.11h.35v2.86h-.35c-.13-.5-.28-.81-.46-.94-.19-.13-.58-.2-1.2-.2h-2.92v4.23c0 .3.06.5.2.63.13.12.35.18.66.18h2.07c.74 0 1.25-.04 1.53-.12.28-.08.52-.23.71-.45.2-.22.4-.57.63-1.06h.35l-.55 2.2h-8.5v-.34c.53 0 .89-.14 1.07-.4.18-.28.27-.76.27-1.45v-7.39c0-.72-.1-1.2-.28-1.48-.19-.27-.54-.4-1.06-.4v-.34h8.5v1.97h-.22c-.12-.56-.29-.94-.51-1.12-.23-.19-.72-.28-1.47-.28h-3.4v5.05h3.3c.45 0 .76-.08.92-.24.17-.16.28-.46.36-.91m16.81 4.86v-7.1c0-.7-.1-1.18-.28-1.45-.18-.27-.51-.42-.98-.44v-.34h4.17V11c-.5 0-.86.14-1.05.41-.2.28-.3.77-.3 1.47v7.37c0 .69.1 1.17.3 1.45.19.28.54.42 1.05.42v.34h-2.91v-1.65a5.03 5.03 0 0 1-3.94 1.94 3.88 3.88 0 0 1-2.94-1.11 4.08 4.08 0 0 1-1.07-2.95v-5.8c0-.71-.1-1.2-.28-1.48-.18-.27-.54-.41-1.06-.41v-.34h4.27V11c-.53 0-.9.13-1.08.4-.19.27-.28.76-.28 1.46v5.98c0 .97.26 1.73.8 2.28a2.9 2.9 0 0 0 2.2.83c1.41 0 2.53-.66 3.38-1.96M125.77 11v-.34h3.56V11c-.57 0-.97.13-1.19.4-.22.27-.33.76-.33 1.46v9.6h-.36l-8.36-10.26v8.29c0 .58.11 1 .35 1.25s.64.38 1.2.38v.34h-3.59v-.34c.57 0 .96-.15 1.16-.45.2-.3.3-.82.3-1.57v-6.91c0-.75-.13-1.29-.4-1.61-.28-.33-.73-.52-1.35-.58v-.34h3.03l7.42 9.19v-6.9c0-.73-.1-1.24-.31-1.52-.2-.29-.58-.43-1.13-.43m9.49-.34V11c-.5 0-.86.14-1.05.41-.2.28-.3.77-.3 1.47v7.37c0 .7.1 1.19.3 1.46.2.27.54.4 1.05.4v.35H131v-.34c.52 0 .87-.13 1.06-.4.18-.27.28-.76.28-1.47v-7.37c0-.72-.1-1.22-.28-1.48-.18-.27-.54-.4-1.06-.4v-.34h4.25m13.02 0v.36c-.87 0-1.58.76-2.15 2.3l-3.48 9.3h-.33l-3.66-9.58a5.13 5.13 0 0 0-.89-1.67c-.25-.23-.6-.36-1.06-.37v-.34h4.28V11c-.69 0-1.03.26-1.03.8 0 .17.04.37.13.59l2.9 7.62 2.73-7.36c.12-.32.17-.59.17-.81 0-.56-.35-.84-1.05-.84v-.34h3.44m8.65 4.47h.35v2.86h-.35c-.13-.5-.28-.81-.47-.94-.18-.13-.57-.2-1.18-.2h-2.93v4.23c0 .3.06.5.2.63.13.12.35.18.66.18h2.07a6.6 6.6 0 0 0 1.53-.12c.28-.08.52-.23.71-.45.2-.22.4-.57.63-1.06h.35l-.55 2.2h-8.5v-.34c.53 0 .89-.14 1.07-.4.18-.28.27-.76.27-1.45v-7.39c0-.72-.1-1.2-.28-1.48-.19-.27-.54-.4-1.06-.4v-.34h8.5v1.97h-.22c-.12-.56-.3-.94-.52-1.12-.22-.19-.7-.28-1.46-.28h-3.4v5.05h3.3c.45 0 .76-.08.92-.24.16-.16.28-.46.36-.91m7.24-4.02h-1.24v5.4h1.45c.87 0 1.55-.25 2.04-.75.5-.5.74-1.15.74-1.97 0-.8-.27-1.45-.82-1.94a3.12 3.12 0 0 0-2.17-.74Zm-.28 5.89h-.96v3.24c0 .7.1 1.2.3 1.47.2.27.55.4 1.05.4v.35h-4.25v-.34c.53 0 .88-.14 1.07-.41.18-.28.27-.77.27-1.46v-7.4c0-.7-.09-1.19-.27-1.45-.18-.27-.53-.4-1.07-.4v-.34h4.84c1.2 0 2.15.29 2.87.87a2.73 2.73 0 0 1 1.07 2.22c0 1.45-.81 2.41-2.44 2.9.36.22.7.54 1.05.94.34.4.78 1.06 1.33 1.99.62 1.02 1.1 1.7 1.45 2.02.35.32.71.5 1.09.52v.34h-2.42a22 22 0 0 1-1.8-2.63 9.93 9.93 0 0 0-1.77-2.33c-.42-.33-.9-.5-1.41-.5Zm14.38-6.51h.33v2.76h-.35a2.7 2.7 0 0 0-.83-1.79 2.56 2.56 0 0 0-1.79-.64c-.63 0-1.15.16-1.54.48a1.6 1.6 0 0 0-.58 1.29c0 .5.16.95.49 1.36.32.4 1.01.93 2.09 1.58a9.32 9.32 0 0 1 2.51 1.95 3.24 3.24 0 0 1-.34 4.29c-.65.65-1.44.98-2.37.98a6.4 6.4 0 0 1-2.05-.44 2.78 2.78 0 0 0-.65-.18c-.2 0-.35.15-.45.45h-.36V19.4h.36a2.81 2.81 0 0 0 2.84 2.9c.72.01 1.29-.18 1.72-.56.43-.39.65-.9.65-1.53 0-.48-.18-.94-.53-1.37a9.7 9.7 0 0 0-2.23-1.7 9.84 9.84 0 0 1-1.84-1.34 3.24 3.24 0 0 1-.9-2.37c0-.9.3-1.64.88-2.2.6-.57 1.37-.85 2.33-.85.52 0 1.09.1 1.7.3.3.1.5.15.6.15.1 0 .17-.02.2-.06a.88.88 0 0 0 .11-.27m7.2.16V11c-.5 0-.86.14-1.05.41-.2.28-.3.77-.3 1.47v7.37c0 .7.1 1.19.3 1.46.2.27.54.4 1.05.4v.35h-4.25v-.34c.52 0 .87-.13 1.06-.4.18-.27.28-.76.28-1.47v-7.37c0-.72-.1-1.22-.28-1.48-.18-.27-.54-.4-1.06-.4v-.34h4.25m9.37.57h-1.79v9.08c0 .7.09 1.19.26 1.44.18.25.52.37 1.02.37v.34h-4.18v-.34c.52 0 .88-.14 1.06-.43.19-.28.28-.77.28-1.44v-9.02h-1.7c-.83 0-1.42.13-1.8.4-.37.26-.58.69-.62 1.3H187v-2.71h.36c.31.29.9.44 1.77.44h6.19c.89 0 1.51-.15 1.87-.44h.37v2.7h-.23c-.15-.65-.41-1.1-.8-1.33a3.26 3.26 0 0 0-1.7-.36m12.67 1.11-2.65 4.19v3.71c0 .72.1 1.22.28 1.48.18.27.52.4 1.02.4v.34h-4.3v-.34c.58 0 .96-.14 1.15-.42.2-.29.3-.77.3-1.46v-3.71l-2.52-3.92a5.36 5.36 0 0 0-1.02-1.28 1.9 1.9 0 0 0-1.09-.33v-.34h4.62V11c-.81 0-1.22.19-1.22.55 0 .17.08.38.25.63l2.33 3.57 1.87-2.96c.27-.44.41-.82.41-1.14 0-.43-.26-.65-.78-.65v-.34h3.24V11a2 2 0 0 0-1.01.29c-.24.16-.53.51-.87 1.05M64.6 38.18c.66 0 1.24-.42 1.75-1.24.5-.83.76-1.82.76-2.96 0-.52-.13-.95-.4-1.3a1.2 1.2 0 0 0-1-.53c-.65 0-1.23.41-1.74 1.23-.5.83-.76 1.8-.76 2.9 0 .58.12 1.04.37 1.38.26.35.6.52 1.02.52Zm1.64-6.64c.56 0 1.04.24 1.45.7.42.46.63 1 .63 1.63 0 1.1-.41 2.18-1.24 3.27-.82 1.1-1.8 1.64-2.94 1.64a2 2 0 0 1-1.54-.67 2.5 2.5 0 0 1-.6-1.73c0-1.22.44-2.33 1.32-3.33.88-1 1.86-1.5 2.92-1.5Z" fill="#0A0B09"/><path d="m73.4 31.77-.07.56H71.9l-1.15 6.02c-.3 1.62-.64 2.8-1 3.54a4.1 4.1 0 0 1-3.68 2.32 4.46 4.46 0 0 1-2.4-.55l.32-1.44h.35c.22 1.06.82 1.58 1.8 1.58.74 0 1.38-.27 1.94-.8s1.02-1.77 1.38-3.7l1.31-6.97h-1.45l.06-.56h1.46l.5-2.5c.27-1.33.71-2.24 1.32-2.75a3.3 3.3 0 0 1 2.17-.75c.4 0 .86.09 1.4.27l.07-.25h.4l-.38 1.86h-.42c-.08-.98-.52-1.47-1.3-1.47-.99 0-1.66.84-2.01 2.52l-.65 3.07h1.46m14.21-.56h.35v2.87h-.35c-.13-.5-.28-.82-.46-.95-.18-.12-.58-.19-1.19-.19h-2.93v4.23c0 .3.07.5.2.62s.35.18.67.18h2.06c.74 0 1.25-.04 1.53-.12.28-.08.52-.23.71-.44.2-.22.4-.58.63-1.07h.35l-.54 2.2h-8.5v-.33c.52 0 .88-.14 1.06-.41.18-.27.27-.76.27-1.45v-7.38c0-.72-.1-1.21-.28-1.48-.19-.27-.54-.4-1.06-.4v-.35h8.5v1.98h-.21c-.12-.57-.3-.94-.52-1.13-.23-.18-.71-.27-1.47-.27h-3.4v5.05h3.3c.45 0 .76-.08.92-.24.17-.16.29-.47.36-.92m8.36-4.01h-2.25v8.71c0 .84.1 1.41.3 1.72.2.31.61.47 1.21.47h1.22c1.45 0 2.6-.47 3.42-1.4a5.56 5.56 0 0 0 1.25-3.84 6 6 0 0 0-1.36-4.12 4.8 4.8 0 0 0-3.8-1.54Zm-5.14 11.35v-.34c.5 0 .85-.14 1.05-.42.19-.28.29-.77.29-1.46v-7.36c0-.7-.1-1.2-.3-1.47-.19-.28-.54-.41-1.04-.41v-.35h5.46c2.01 0 3.63.58 4.84 1.73a5.77 5.77 0 0 1 1.81 4.37 5.3 5.3 0 0 1-1.72 4.16c-1.14 1.03-2.74 1.55-4.78 1.55h-5.61Zm17.92-11.81v.35c-.5 0-.85.13-1.05.4-.2.28-.29.77-.29 1.48v7.36c0 .7.1 1.2.3 1.47.19.27.54.4 1.04.4v.35h-4.25v-.34c.52 0 .87-.14 1.06-.4.19-.28.28-.77.28-1.48v-7.36c0-.73-.1-1.22-.28-1.49-.18-.26-.53-.4-1.06-.4v-.34h4.25m10.49.35v-.35h3.56v.35c-.57 0-.97.13-1.19.4-.22.27-.33.75-.33 1.46v9.6h-.36l-8.36-10.27v8.3c0 .58.11 1 .35 1.25s.64.38 1.2.38v.34h-3.59v-.34c.57 0 .96-.15 1.16-.45.2-.3.3-.83.3-1.58v-6.9c0-.75-.13-1.29-.4-1.61-.28-.33-.73-.52-1.35-.58v-.35h3.03l7.42 9.2v-6.91c0-.73-.1-1.23-.31-1.52-.2-.28-.58-.42-1.13-.42m8.88 5.56H127v3.46c0 .77.09 1.29.25 1.57.17.28.5.42.97.42h.98a2.2 2.2 0 0 0 1.68-.7c.43-.45.65-1.07.65-1.84 0-.88-.31-1.58-.93-2.11a3.7 3.7 0 0 0-2.48-.8ZM127 27.2v5h1.22c.86 0 1.54-.22 2.04-.67.5-.45.76-1.05.76-1.8 0-.8-.25-1.43-.75-1.87a3.03 3.03 0 0 0-2.09-.66H127Zm2.54 11.35h-5.44v-.34c.5 0 .86-.14 1.05-.41.2-.27.3-.76.3-1.47v-7.36c0-.72-.1-1.21-.28-1.48-.19-.27-.54-.4-1.07-.4v-.35h4.46a5 5 0 0 1 3 .8c.74.52 1.1 1.22 1.1 2.08 0 1.27-.78 2.16-2.37 2.67v.05a4 4 0 0 1 2.2 1.2c.57.61.85 1.32.85 2.12a2.5 2.5 0 0 1-1.04 2.1c-.7.52-1.62.79-2.76.79Zm14.31-2.48v-7.1c0-.7-.09-1.17-.27-1.45-.19-.27-.51-.41-.99-.43v-.35h4.17v.35c-.5 0-.85.13-1.05.4-.19.28-.29.77-.29 1.48v7.36c0 .7.1 1.18.29 1.46.2.28.54.42 1.05.42v.34h-2.9V36.9a5.03 5.03 0 0 1-3.94 1.94 3.89 3.89 0 0 1-2.94-1.12 4.08 4.08 0 0 1-1.08-2.95v-5.8c0-.7-.09-1.2-.27-1.47-.19-.28-.54-.41-1.07-.41v-.35h4.27v.35c-.53 0-.89.13-1.08.4-.18.27-.28.75-.28 1.46v5.98c0 .96.27 1.72.8 2.27a2.9 2.9 0 0 0 2.21.83c1.4 0 2.53-.65 3.37-1.96m8.79-8.87h-1.24v5.4h1.45c.87 0 1.55-.26 2.04-.75.5-.5.74-1.16.74-1.98 0-.8-.27-1.44-.82-1.93a3.12 3.12 0 0 0-2.17-.74Zm-.28 5.88h-.96v3.25c0 .7.1 1.19.3 1.46.2.28.55.42 1.05.42v.34h-4.24v-.34c.52 0 .87-.14 1.06-.42.18-.27.28-.76.28-1.46v-7.4c0-.7-.1-1.18-.28-1.45-.18-.26-.53-.4-1.06-.4v-.34h4.84c1.2 0 2.15.3 2.86.87a2.73 2.73 0 0 1 1.07 2.22c0 1.45-.8 2.42-2.43 2.9.35.23.7.54 1.04.94.34.4.79 1.06 1.34 2 .62 1.02 1.1 1.7 1.44 2.02.35.32.71.49 1.09.52v.34h-2.42a23 23 0 0 1-1.8-2.63 9.99 9.99 0 0 0-1.76-2.33c-.43-.34-.9-.5-1.42-.5Zm19.13.36v.34c-.53 0-.9.12-1.12.36-.23.23-.34.65-.34 1.23v3.18a23.35 23.35 0 0 1-3.3.3c-2.18-.01-3.88-.55-5.1-1.62a5.38 5.38 0 0 1-1.83-4.25c0-1.22.27-2.33.8-3.32a6.05 6.05 0 0 1 7.4-2.86c.48.15.85.22 1.1.22.34 0 .56-.14.67-.4h.37v3.49h-.33a3.43 3.43 0 0 0-1.32-2.32 4.1 4.1 0 0 0-2.6-.87c-1.24 0-2.27.5-3.07 1.49-.8 1-1.2 2.28-1.2 3.86a6.6 6.6 0 0 0 1.39 4.3 4.3 4.3 0 0 0 3.48 1.72c1.32 0 1.98-.42 1.98-1.26v-1.28c0-.73-.1-1.24-.29-1.53-.19-.29-.53-.43-1.01-.43h-.45v-.34h4.78m10.28 2.88V32.9h-6.43v3.43c0 .7.1 1.19.3 1.46.2.28.55.42 1.07.42v.34h-4.27v-.34c.52 0 .87-.14 1.06-.42.19-.28.28-.77.28-1.46v-7.36c0-.73-.1-1.22-.28-1.49-.2-.26-.55-.4-1.06-.4v-.34h4.27v.35c-.52 0-.87.14-1.07.42-.2.29-.3.77-.3 1.46v3.36h6.43v-3.36c0-.73-.09-1.22-.27-1.49-.19-.26-.54-.4-1.05-.4v-.34h4.23v.35c-.5 0-.85.13-1.05.4-.19.28-.29.77-.29 1.48v7.36c0 .7.1 1.2.3 1.47.19.27.54.4 1.04.4v.35h-4.23v-.34c.53 0 .88-.14 1.06-.41.17-.27.26-.76.26-1.47" fill="#0A0B09"/></g></svg>