<svg width="146" height="52" viewBox="0 0 146 52" xmlns="http://www.w3.org/2000/svg"><path d="M115.03 3.78h3.8v-1.4H105.6v1.4h3.8V30.4h-3.8v1.39h13.23V30.4h-3.8zm24.08 28.01V30.4h-4.05V3.49c6.2-.31 7.25 1.01 8.05 6.64h1.36L144 2.38h-23.54l-.48 7.75h1.4c.8-5.63 1.84-6.95 8.05-6.64V30.4h-4.06v1.38h13.75M103.08 3.77V2.38H92.23L85.86 22.5 79.7 2.4H68.9v1.38h3.8v26.64h-4.1c-3.82.08-3.88-3.17-3.86-3.84.05-7.17-1.55-9.77-8.42-10.84v-.1c4.1-.42 9.34-1.59 9.34-6.56 0-6.11-5.71-6.69-10.53-6.69H40.96v1.4h3.8V30.4h-3.8v1.39h13.22V30.4h-3.8V16.36c2.45-.1 5.2.53 6.44 1.6 1.14.97 1.76 3.98 1.76 7.63 0 4.5 2.32 6.2 6.77 6.2H78.1V30.4h-3.72V4.23h.1l8.75 27.56h1.49l8.8-27.56h.14V30.4h-3.79v1.38h13.2V30.4H99.3V3.77h3.79ZM50.38 15V3.77h3.84c3.92 0 5.37.99 5.37 5.93 0 3.94-1.63 5.29-5.6 5.29h-3.6M17.56.64h-4.4v3.57h-7.3v7.43H.36v10.92h5.5V30h7.3v3.56h3.88c9.04 0 17.02-7.3 17.02-16.42 0-9.06-7.44-16.5-16.5-16.5m27.19 40.04c0-.24-.13-.36-.35-.36h-.7v-1.4h1.64c.74 0 1.05.3 1.05 1.04v6.39c0 1.73 1.09 2.76 2.76 2.76 1.66 0 2.76-1.03 2.76-2.78v-6.37c0-.73.32-1.04 1.06-1.04h1.63v1.4h-.7c-.23 0-.36.12-.36.36v5.73c0 2.51-1.75 4.23-4.38 4.23-2.64 0-4.4-1.72-4.4-4.23v-5.73Zm10.95 8.36h.7c.23 0 .36-.13.36-.36v-9.76h1.49l5.13 7.3c.42.62.96 1.56.96 1.56h.03s-.11-.91-.11-1.56v-6.26c0-.73.3-1.04 1.06-1.04h1.63v1.4h-.7c-.23 0-.36.12-.36.36v9.76h-1.47l-5.14-7.3c-.42-.61-.95-1.56-.95-1.56h-.03s.1.93.1 1.57v6.25c0 .73-.31 1.04-1.05 1.04H55.7v-1.4Zm13.02 0h1.13v-8.72h-1.13v-1.4h3.8v1.4H71.4v8.72h1.12v1.4h-3.8zm5.58-8.36c-.1-.3-.26-.36-.53-.36h-.23v-1.4h.91c.82 0 1.1.18 1.36.95l2.53 7.1c.21.62.44 1.58.44 1.58h.03s.22-.96.45-1.58l2.52-7.1c.28-.77.54-.95 1.36-.95h.91v1.4h-.22c-.3 0-.44.07-.54.36l-3.63 9.76h-1.73l-3.62-9.76Zm11.76-.36H85v-1.4h6.78c.73 0 1.04.3 1.04 1.04v1.46h-1.48v-.74c0-.24-.13-.36-.36-.36H87.7v3.61h4.03v1.4H87.7v3.35c0 .23.13.36.36.36h3.36c.23 0 .36-.13.36-.36v-.73h1.5v1.45c0 .73-.31 1.04-1.04 1.04H87.1c-.74 0-1.05-.3-1.05-1.04v-9.08Zm13.27 4.13c1.24 0 1.97-.8 1.97-2.09 0-1.29-.73-2.04-1.94-2.04H97.2v4.13h2.13Zm-3.76-4.13H94.5v-1.4h5.03c2.02 0 3.44 1.27 3.44 3.38 0 1.92-1.25 2.87-2.07 3.05v.03s.3.15.49.53l1.39 2.75c.16.35.42.38.81.38h.22v1.4h-.8c-.9 0-1.23-.11-1.6-.86l-1.57-3.1c-.3-.54-.5-.62-1.15-.62h-1.5v4.58h-1.63V40.32Zm10.33 7.45s1.18 1.38 2.9 1.38c1.07 0 1.97-.65 1.97-1.71 0-2.42-5.57-2.04-5.57-5.63 0-1.73 1.52-3.09 3.7-3.09 1.22 0 3.27.56 3.27 2.12v.95h-1.5v-.54c0-.6-.86-1.04-1.78-1.04-1.24 0-2.02.68-2.02 1.55 0 2.33 5.55 1.81 5.55 5.6 0 1.76-1.37 3.28-3.66 3.28-2.45 0-3.82-1.72-3.82-1.72l.96-1.15Zm8.23 1.27h1.13v-8.72h-1.13v-1.4h3.81v1.4h-1.13v8.72h1.13v1.4h-3.8zm9-8.72h-2.32c-.23 0-.36.12-.36.36v.74H119V39.9c0-.74.24-.98.98-.98h7.93c.73 0 .98.24.98.98v1.52h-1.45v-.74c0-.24-.13-.36-.36-.36h-2.32v10.12h-1.63V40.32Zm10.42 5.1-2.93-4.69c-.2-.34-.36-.4-.7-.4h-.33v-1.41h.75c.79 0 1.1.11 1.56.88l1.74 2.9c.38.64.7 1.3.7 1.3h.04s.3-.66.7-1.3l1.73-2.9c.46-.77.78-.88 1.55-.88h.75v1.4h-.31c-.34 0-.5.07-.72.41l-2.9 4.69v5.02h-1.63v-5.02Z"/></svg>