<svg width="165" height="50" viewBox="0 0 165 50" xmlns="http://www.w3.org/2000/svg"><path d="M58.29 8.21c-.88-1.17-1.69-2.3-2.52-3.47l-.04.02c.02 1.28.04 2.58.04 3.87v5h-2.84V.2h2.78l4.02 5.41c.87 1.17 1.69 2.3 2.52 3.47l.04-.02a247.1 247.1 0 0 1-.04-3.87V.2h2.84v13.42H62.3m9.5-9.32c2.9 0 5.07 2.07 5.07 4.76 0 2.7-2.17 4.76-5.08 4.76-2.9 0-5.07-2.07-5.07-4.76 0-2.68 2.16-4.76 5.07-4.76m0 7.1a2.34 2.34 0 1 0-2.26-2.34 2.28 2.28 0 0 0 2.26 2.34m6.71-6.9h2.76v1.23l.04.01a3.09 3.09 0 0 1 3.24-1.27v2.65c-.24-.06-.5-.1-.76-.1a3.03 3.03 0 0 0-2.46 1.08v5.52H78.5m14.3-.29a4.2 4.2 0 0 1-2.06.5 3.2 3.2 0 0 1-2.37-.91c-.48-.52-.8-1.28-.8-2.73V6.84h-1.48V4.5h1.48V2.13l2.82-.48V4.5h2.4v2.34h-2.4V9.9c0 .88.2 1.55 1.06 1.55a3.2 3.2 0 0 0 1.35-.37M94.67.2h2.81v5.12l.04.02a4.37 4.37 0 0 1 2.78-1.04 3.3 3.3 0 0 1 2.4.92c.55.6.79 1.4.79 2.71v5.69h-2.82V8.4c0-.7-.1-1.03-.31-1.28a1.2 1.2 0 0 0-.97-.4c-.7.05-1.36.31-1.9.77v6.13h-2.82m16.71-.87a4.1 4.1 0 0 1-2.78 1.07 3.2 3.2 0 0 1-2.37-.9c-.6-.62-.87-1.45-.87-2.8V4.5h2.81v5.2c0 .66.11 1.05.36 1.3.25.28.62.43 1 .42.7-.04 1.35-.33 1.85-.82V4.5h2.82v9.12h-2.78v-.85m16.43-4.41c0-.69-.11-1-.33-1.24a1.3 1.3 0 0 0-.96-.4 2.8 2.8 0 0 0-1.8.77c.01.13.02.27.01.4v5.73h-2.81V8.36c0-.61-.1-.99-.34-1.24a1.3 1.3 0 0 0-.95-.4c-.66.05-1.28.3-1.78.75v6.15h-2.83V4.5h2.78v.82l.04.02a4.21 4.21 0 0 1 2.74-1.04c.99 0 2.12.39 2.65 1.3a4.75 4.75 0 0 1 3.2-1.3c.89-.04 1.74.3 2.37.9.57.6.83 1.4.83 2.7v5.72h-2.82M132.54.2h2.83v4.71l.03.02a4.16 4.16 0 0 1 2.24-.63c2.26 0 4.3 1.76 4.3 4.6a4.75 4.75 0 0 1-4.93 4.92c-.77 0-1.54-.16-2.26-.46l-2.2.37m4.24-2.19c1.52 0 2.3-1.18 2.3-2.52 0-1.33-.8-2.37-2.19-2.37-.55 0-1.08.16-1.55.45v4.09c.44.23.94.35 1.44.35m6.67-7.04h2.77v1.23l.03.01a3.09 3.09 0 0 1 3.25-1.27v2.65c-.25-.06-.5-.1-.76-.1a3.03 3.03 0 0 0-2.46 1.08v5.52h-2.83M152.62 0a1.61 1.61 0 1 1-.04 3.22 1.61 1.61 0 0 1 .04-3.22m-1.41 4.51h2.82v9.12h-2.82V4.5Zm10.25 8.55a4.42 4.42 0 0 1-4.66.17 2.49 2.49 0 0 1-1.07-2.13 2.6 2.6 0 0 1 1.11-2.2 4.58 4.58 0 0 1 2.56-.66c.53 0 1.06.06 1.57.17v-.35c.03-.36-.1-.7-.35-.97-.26-.23-.74-.39-1.4-.39a5.7 5.7 0 0 0-2.68.72V5c1-.47 2.1-.72 3.2-.7a4.8 4.8 0 0 1 3.03.86c.69.56 1.02 1.37 1.02 2.52v3.09c0 .43.17.72.56.72.16 0 .33-.03.47-.1v2.1c-.42.2-.88.3-1.35.28a2.66 2.66 0 0 1-1.96-.72m-.54-3.01a3.7 3.7 0 0 0-1-.13c-.7 0-1.44.22-1.44.93 0 .59.52.9 1.17.9.45 0 .89-.13 1.27-.37v-1.33ZM64.62 25.71c0 2.02-.27 3.49-1.03 4.56-.95 1.35-2.67 2.15-4.82 2.15-2.15 0-3.9-.8-4.84-2.19-.71-1.07-1-2.54-1-4.44v-7h2.95v6.88c0 1.42.13 2.3.52 2.93.38.62 1.18 1.16 2.44 1.16 1.17 0 1.93-.42 2.38-1.11.4-.63.57-1.56.57-2.96v-6.9h2.84m1.87 4.31h2.78v.83l.03.02a4.47 4.47 0 0 1 2.82-1.05c.89-.03 1.75.3 2.39.92.56.6.8 1.4.8 2.7v5.7H72.5V27c0-.68-.1-1.01-.32-1.27a1.2 1.2 0 0 0-.96-.4 3.3 3.3 0 0 0-1.9.77v6.13H66.5m12.09-13.64a1.61 1.61 0 1 1-.03 3.22 1.61 1.61 0 0 1 .03-3.22m-1.4 4.51h2.8v9.12h-2.8V23.1Zm4.17 0h2.97l1.07 2.93c.35.96.71 1.96 1.02 2.9h.04c.33-.94.71-1.97 1.1-2.92l1.12-2.91h2.78l-3.7 9.12h-2.7m9.47-3.82c.32 1.25 1.35 1.83 2.65 1.83a5.67 5.67 0 0 0 3.09-1v2.35c-.89.56-2.26.83-3.47.83-3 0-5.17-1.87-5.17-4.72a4.7 4.7 0 0 1 4.79-4.8c2.24 0 4.35 1.48 4.35 4.54 0 .32-.01.64-.05.96m-2.54-1.78c-.1-.9-.88-1.59-1.8-1.57-.87 0-1.63.53-1.87 1.57h3.67Zm4.3-3.51h2.76v1.23l.03.01a3.09 3.09 0 0 1 3.25-1.28v2.65c-.25-.06-.5-.09-.76-.09a3.03 3.03 0 0 0-2.47 1.08v5.52h-2.81m7.74-3.03c1.1.64 2.33 1 3.6 1.06.77 0 1.23-.2 1.23-.72 0-.7-1.01-.63-2.39-.98-1.72-.42-2.74-1.15-2.74-2.65.02-1.93 1.72-3.02 3.98-3.02 1.2-.01 2.4.23 3.49.71v2.43a7.7 7.7 0 0 0-3.43-.98c-.74 0-1.19.22-1.19.65 0 .67.99.6 2.34.95 1.74.42 2.8 1.1 2.8 2.67-.02 2-1.76 3.08-4.1 3.08a8.68 8.68 0 0 1-3.6-.74m10.62-13.06a1.61 1.61 0 1 1-.03 3.22 1.61 1.61 0 0 1 .03-3.22m-1.4 4.51h2.81v9.12h-2.81V23.1Zm11.22 8.81a4.2 4.2 0 0 1-2.05.5 3.21 3.21 0 0 1-2.38-.9c-.47-.52-.8-1.28-.8-2.73v-3.35h-1.48V23.1h1.49v-2.37l2.81-.48v2.85h2.41v2.34h-2.4v3.06c0 .88.2 1.55 1.05 1.55a3.2 3.2 0 0 0 1.35-.37m2.51 6.61 2.4-5.08-3.71-8.11h2.96l.95 2.26c.41.98.8 1.95 1.17 2.9h.04c.4-1 .81-1.97 1.24-2.95l.95-2.21h2.8l-5.94 13.2m-5.62 13.56h5.39v-.74h-4.58v-3.83h3.95v-.74h-3.95v-3.47h4.46v-.73h-5.26m-8.09 9.51h5.52v-.74h-4.71v-8.77h-.81m-6.63 9.51h.8v-8.78h3.27v-.73h-7.34v.73h3.27m-10.87 8.12c.84.53 1.82.8 2.81.8 1.79 0 3-.97 3-2.64 0-1.82-1.42-2.32-2.77-2.7-1.2-.33-2.38-.6-2.38-1.96 0-1.16.86-1.75 2.1-1.75.95.01 1.88.32 2.67.87v-.87c-.8-.5-1.73-.76-2.67-.75-1.72 0-2.9.92-2.9 2.55 0 1.72 1.34 2.22 2.7 2.61 1.24.34 2.46.64 2.46 2.05 0 1.23-.93 1.85-2.21 1.85-1.01 0-2-.34-2.8-.95m-5.74-7.96h-.77l-3.96 9.5h.83L96.36 47h4.66l1.17 2.84h.88m-6.4-3.56.98-2.38c.4-.95.7-1.77 1.05-2.6h.02l1.05 2.61.95 2.35-4.04.02Zm-4.14 2.14c-.78.55-1.71.84-2.67.83a4.03 4.03 0 0 1-4.2-4.15 4.01 4.01 0 0 1 4.15-4.15c.9 0 1.8.26 2.55.75v-.9c-.79-.4-1.66-.6-2.55-.6-3 0-4.95 2.2-4.95 4.91A4.78 4.78 0 0 0 89.82 50c.95.01 1.88-.22 2.71-.68m-18.59.54h.87l1.75-5.53.73-2.4h.03c.2.66.52 1.73.75 2.43l1.73 5.5h.83l2.98-9.5h-.82l-1.72 5.51c-.23.8-.59 1.92-.84 2.76h-.02c-.24-.81-.6-1.96-.87-2.78l-1.73-5.5H77l-1.69 5.36-.9 2.92h-.03l-.88-2.89-1.68-5.38h-.87m-7.43 9.5h5.38v-.74h-4.58v-3.83h3.95v-.74h-3.95v-3.47h4.46v-.73h-5.26m-9.82 9.51V44.5l-.01-2.85.02-.02c.61.83 1.16 1.58 1.8 2.42l4.34 5.8h.76v-9.5h-.76v8.19l-.02.02-1.78-2.42-4.35-5.8h-.76v9.5M35.53 27.58l.1-.18.38-.71.76-1.44-.7-.38-2.16-1.15-1.15 2.16-.18.34a30.74 30.74 0 0 0-3.53-1.14l.03-.16.4-1.58.19-.8-1.58-.39-.8-.2-.78-.2-.2.8-.19.79-.2.79-.07.28a34.8 34.8 0 0 0-3.82-.38v-2.66h-3.27v2.66c-1.28.06-2.55.18-3.82.38l-.07-.28-.38-1.58-.2-.8-.8.2-.78.2-1.58.4.2.79.39 1.58.04.15c-1.2.3-2.38.69-3.54 1.14l-.17-.34-1.15-2.15-2.15 1.14-.71.38.76 1.44.38.71.1.18a23.2 23.2 0 0 0-2.85 1.8c.47 1.2 1.01 2.35 1.62 3.47 4.72 8.55 10.13 12.85 10.96 13.55a24.6 24.6 0 0 0 4.14 2.89c.7.35 1.1.52 1.22.57h.04c.11-.05.52-.22 1.22-.57a24.7 24.7 0 0 0 4.14-2.89c.84-.7 6.24-5 10.95-13.55a30.64 30.64 0 0 0 1.64-3.47c-.9-.66-1.85-1.26-2.83-1.79m-11.58 9.8c-.86 0-2.7.06-3.55 1.08-.84-1.02-2.68-1.08-3.54-1.09-.87 0-2.47.16-3.78.05l.3-7.87 1.02-.82c1.05.29 1.54 0 2.71-.01 1.3 0 2.23.16 3.3.8a5.7 5.7 0 0 1 3.29-.83c1.18 0 1.66.33 2.7.04l1.02.82.3 7.87c-1.3.1-2.9-.05-3.77-.05"/><path d="M20 36.62c-1.5-.78-3.36-.27-4.9-.67l.07-2.55.1-3.68h.1c.32 0 .64-.04.95-.1a7.8 7.8 0 0 1 2.29-.04c.5.1.96.3 1.39.57m.81 6.47v-6.46c.43-.27.9-.46 1.4-.57a7.8 7.8 0 0 1 2.27.04c.32.06.64.1.95.1h.12l.09 3.68.06 2.55c-1.53.4-3.38-.1-4.89.67m-5.7-24.22v.82h.82V11.6h-.82m14.65-3.26v.82h.82V7.53h-.82m-19.53.81v.82h.81V7.53h-.81m-4.88 4.88v.82h.81V11.6h-.81m19.53.81v.82h.81V11.6h-.81"/><path d="M0 .2v16.9c0 3.61.8 7.67 1.9 10.9l.22.62a23.4 23.4 0 0 1 2.05-1.34l-.5-.93-.76-1.44 1.19-.64 2.03-1.08.37-.2.7-.37 1.27 2.37.12.22c.7-.25 1.42-.5 2.16-.7l-.24-.98-.2-.79-.2-.79 1.59-.4 3.15-.78.2.8.2.78.29 1.15c.79-.1 1.59-.19 2.39-.24v-2.7h4.88v2.7c.81.06 1.61.14 2.4.24l.29-1.15.2-.8.2-.78 3.15.78 1.58.4-.4 1.58-.23.97c.74.21 1.46.45 2.16.71l.12-.22.5-.94.76-1.43.71.38 2.51 1.34 1.09.57-1.27 2.37c.7.41 1.39.86 2.04 1.34l.24-.63a35.45 35.45 0 0 0 1.92-10.92V.21M9 5.1v-.82h.4v.82h.82v-.82h.81v.82h.82v-.82h.4V5.9H9.01v-.8Zm2.85 1.63v3.25H9.42V6.71h2.44ZM7.79 11.6h.81v-.82h.82v.82h.8v-.82h.82v.82h.82v-.82h.81v.82h.82v.81h-5.7v-.81Zm-.4 5.7v.81H4.12v-1.63h3.25v.82Zm-.42-1.63H4.12l.4-.81v-4.08h2.45v4.07l.4.82h-.4Zm.41-6.51v.81H4.13V8.35h.4v.81h.82v-.81h.8v.81h.82v-.81h.41v.81Zm5.7 6.51v2.44h-.81v-2.44l-1.63-1.63L9 15.67v2.44h-.82v-2.44l-.4-.82v-1.62h5.7v1.62l-.4.82Zm4.07 1.63v.81H13.9v-1.63h3.26v.82Zm-.4-1.63H13.9l.4-.81v-4.08h2.44v4.07l.4.82h-.4Zm.4-6.51v.81H13.9V8.35h.4v.81h.82v-.81h.82v.81h.81v-.81h.4l.01.81Zm11.4-4.07v-.82h.4v.82h.82v-.82h.82v.82h.81v-.82h.4V5.9h-3.26l.01-.81Zm2.85 1.63v3.25h-2.45V6.71h2.45Zm-4.07 4.88h.81v-.81h.82v.81h.81v-.81h.82v.81h.81v-.81h.81v.81h.8v.81h-5.7l.02-.8Zm-.4 5.7v.81h-3.27v-1.63h3.26v.82Zm-.41-1.63h-2.85l.4-.81v-4.08h2.44v4.07l.41.82h-.4Zm.4-6.5v.8h-3.26V8.36h.4v.81h.82v-.81h.81v.81h.82v-.81h.4l.01.81Zm5.7 6.5v2.44h-.82v-2.44l-1.63-1.63-1.63 1.63v2.44h-.81v-2.44l-.4-.82v-1.62h5.7v1.62l-.4.82Zm4.07 1.63v.81h-3.26v-1.63h3.25l.01.82Zm-.4-1.63h-2.85l.4-.81v-4.08h2.44v4.07l.41.82h-.4Zm.4-6.5v.8h-3.26V8.36h.4v.81h.82v-.81h.81v.81h.82v-.81h.4l.01.81Z"/><path d="M34.65 12.41v.82h.81V11.6h-.81"/></svg>